<svg width="6" height="7" viewBox="0 0 6 7" fill="none" xmlns="http://www.w3.org/2000/svg">
<g clip-path="url(#clip0_237_695)">
<mask id="path-1-inside-1_237_695" fill="white">
<path d="M1.18929 4.63959H2.72165V4.87414H2.20098C2.13621 4.87414 2.0837 4.92664 2.0837 4.99141C2.0837 5.05617 2.13621 5.10868 2.20098 5.10868H3.94594C4.01071 5.10868 4.06322 5.05617 4.06322 4.99141C4.06322 4.92664 4.01071 4.87414 3.94594 4.87414H3.42528V4.63959H4.95763C5.0224 4.63959 5.07491 4.58709 5.07491 4.52232V1.81503C5.07491 1.75026 5.0224 1.69775 4.95763 1.69775H1.18929C1.12453 1.69775 1.07202 1.75026 1.07202 1.81503V4.52231C1.07202 4.58709 1.12453 4.63959 1.18929 4.63959ZM3.19074 4.87414H2.95619V4.63959H3.19074V4.87414ZM1.30657 1.9323H4.84036V3.93595H1.30657V1.9323ZM1.30657 4.1705H4.84036V4.40505H1.30657V4.1705Z"/>
</mask>
<path d="M1.18929 4.63959H2.72165V4.87414H2.20098C2.13621 4.87414 2.0837 4.92664 2.0837 4.99141C2.0837 5.05617 2.13621 5.10868 2.20098 5.10868H3.94594C4.01071 5.10868 4.06322 5.05617 4.06322 4.99141C4.06322 4.92664 4.01071 4.87414 3.94594 4.87414H3.42528V4.63959H4.95763C5.0224 4.63959 5.07491 4.58709 5.07491 4.52232V1.81503C5.07491 1.75026 5.0224 1.69775 4.95763 1.69775H1.18929C1.12453 1.69775 1.07202 1.75026 1.07202 1.81503V4.52231C1.07202 4.58709 1.12453 4.63959 1.18929 4.63959ZM3.19074 4.87414H2.95619V4.63959H3.19074V4.87414ZM1.30657 1.9323H4.84036V3.93595H1.30657V1.9323ZM1.30657 4.1705H4.84036V4.40505H1.30657V4.1705Z" fill="#7C7C7C"/>
<path d="M2.72165 4.63959H2.96529V4.39595H2.72165V4.63959ZM2.72165 4.87414V5.11777H2.96529V4.87414H2.72165ZM3.42528 4.87414H3.18164V5.11777H3.42528V4.87414ZM3.42528 4.63959V4.39595H3.18164V4.63959H3.42528ZM3.19074 4.87414V5.11777H3.43437V4.87414H3.19074ZM2.95619 4.87414H2.71255V5.11777H2.95619V4.87414ZM2.95619 4.63959V4.39595H2.71255V4.63959H2.95619ZM3.19074 4.63959H3.43437V4.39595H3.19074V4.63959ZM1.30657 1.9323V1.68866H1.06293V1.9323H1.30657ZM4.84036 1.9323H5.084V1.68866H4.84036V1.9323ZM4.84036 3.93595V4.17959H5.084V3.93595H4.84036ZM1.30657 3.93595H1.06293V4.17959H1.30657V3.93595ZM1.30657 4.1705V3.92687H1.06293V4.1705H1.30657ZM4.84036 4.1705H5.084V3.92687H4.84036V4.1705ZM4.84036 4.40505V4.64869H5.084V4.40505H4.84036ZM1.30657 4.40505H1.06293V4.64869H1.30657V4.40505ZM1.18929 4.88323H2.72165V4.39595H1.18929V4.88323ZM2.47801 4.63959V4.87414H2.96529V4.63959H2.47801ZM2.72165 4.6305H2.20098V5.11777H2.72165V4.6305ZM2.20098 4.6305C2.00165 4.6305 1.84007 4.79209 1.84007 4.99141H2.32734C2.32734 5.0612 2.27077 5.11777 2.20098 5.11777V4.6305ZM1.84007 4.99141C1.84007 5.19073 2.00165 5.35232 2.20098 5.35232V4.86504C2.27077 4.86504 2.32734 4.92162 2.32734 4.99141H1.84007ZM2.20098 5.35232H3.94594V4.86504H2.20098V5.35232ZM3.94594 5.35232C4.14527 5.35232 4.30685 5.19073 4.30685 4.99141H3.81958C3.81958 4.92162 3.87615 4.86504 3.94594 4.86504V5.35232ZM4.30685 4.99141C4.30685 4.79209 4.14527 4.6305 3.94594 4.6305V5.11777C3.87615 5.11777 3.81958 5.0612 3.81958 4.99141H4.30685ZM3.94594 4.6305H3.42528V5.11777H3.94594V4.6305ZM3.66892 4.87414V4.63959H3.18164V4.87414H3.66892ZM3.42528 4.88323H4.95763V4.39595H3.42528V4.88323ZM4.95763 4.88323C5.15696 4.88323 5.31854 4.72164 5.31854 4.52232H4.83127C4.83127 4.45253 4.88784 4.39595 4.95763 4.39595V4.88323ZM5.31854 4.52232V1.81503H4.83127V4.52232H5.31854ZM5.31854 1.81503C5.31854 1.6157 5.15696 1.45412 4.95763 1.45412V1.94139C4.88784 1.94139 4.83127 1.88482 4.83127 1.81503H5.31854ZM4.95763 1.45412H1.18929V1.94139H4.95763V1.45412ZM1.18929 1.45412C0.98997 1.45412 0.828383 1.6157 0.828383 1.81503H1.31566C1.31566 1.88482 1.25909 1.94139 1.18929 1.94139V1.45412ZM0.828383 1.81503V4.52231H1.31566V1.81503H0.828383ZM0.828383 4.52231C0.828383 4.72163 0.98996 4.88323 1.18929 4.88323V4.39595C1.2591 4.39595 1.31566 4.45254 1.31566 4.52231H0.828383ZM3.19074 4.6305H2.95619V5.11777H3.19074V4.6305ZM3.19983 4.87414V4.63959H2.71255V4.87414H3.19983ZM2.95619 4.88323H3.19074V4.39595H2.95619V4.88323ZM2.9471 4.63959V4.87414H3.43437V4.63959H2.9471ZM1.30657 2.17594H4.84036V1.68866H1.30657V2.17594ZM4.59672 1.9323V3.93595H5.084V1.9323H4.59672ZM4.84036 3.69231H1.30657V4.17959H4.84036V3.69231ZM1.5502 3.93595V1.9323H1.06293V3.93595H1.5502ZM1.30657 4.41414H4.84036V3.92687H1.30657V4.41414ZM4.59672 4.1705V4.40505H5.084V4.1705H4.59672ZM4.84036 4.16141H1.30657V4.64869H4.84036V4.16141ZM1.5502 4.40505V4.1705H1.06293V4.40505H1.5502Z" fill="#7C7C7C" mask="url(#path-1-inside-1_237_695)"/>
<path d="M4.11998 2.71684L4.10538 2.71204L4.097 2.69914C4.10429 2.70549 4.11196 2.7114 4.11998 2.71684ZM3.74744 3.15171L3.76208 3.15652L3.77047 3.16945C3.76317 3.16309 3.75548 3.15716 3.74744 3.15171ZM3.44164 3.18364C3.43492 3.19059 3.42862 3.19794 3.42278 3.20566L3.42833 3.19133L3.44164 3.18364ZM2.98311 2.78992L2.97744 2.80454L2.96391 2.81236C2.97075 2.80528 2.97717 2.79779 2.98311 2.78992ZM2.58789 2.77016C2.59292 2.77844 2.59844 2.78638 2.60442 2.79396L2.59195 2.78497L2.58789 2.77016ZM2.08065 3.12369L2.09315 3.1327L2.09723 3.14755C2.09218 3.13925 2.08664 3.13128 2.08065 3.12369Z" fill="#7C7C7C" stroke="#7C7C7C" stroke-width="0.243638"/>
</g>
<defs>
<clipPath id="clip0_237_695">
<rect width="5.84731" height="5.84731" fill="white" transform="translate(0.149902 0.479492)"/>
</clipPath>
</defs>
</svg>
