<svg width="67" height="66" viewBox="0 0 67 66" fill="none" xmlns="http://www.w3.org/2000/svg">
<path d="M6.1605 28.875C5.97266 30.1645 5.87138 31.4728 5.86018 32.791L5.98199 32.7921C5.9813 32.8736 5.98095 32.9553 5.98095 33.0369H6.20518C6.20518 32.956 6.20553 32.875 6.20622 32.7942L6.32803 32.7952C6.33905 31.4992 6.43861 30.2131 6.62328 28.9454L6.50273 28.9278C6.52606 28.7677 6.55074 28.6078 6.57676 28.4483L6.69699 28.4679C6.90513 27.192 7.19968 25.9359 7.57711 24.7083L7.46067 24.6725C7.50821 24.5179 7.55705 24.3638 7.60719 24.2101L7.723 24.2479C8.12313 23.0216 8.60651 21.8253 9.16953 20.6679L9.05999 20.6146C9.13072 20.4692 9.20271 20.3244 9.27594 20.1802L9.38455 20.2353C9.96734 19.088 10.6293 17.9805 11.3668 16.9219L11.2669 16.8522C11.3593 16.7196 11.4529 16.5877 11.5477 16.4566L11.6464 16.5279C12.3982 15.4878 13.2243 14.497 14.1211 13.5642L14.0332 13.4798C14.0893 13.4215 14.1456 13.3634 14.2022 13.3056C14.2581 13.2485 14.3142 13.1917 14.3705 13.1351L14.4568 13.2211C15.3598 12.3141 16.3184 11.4778 17.3243 10.7158L17.2507 10.6187C17.378 10.5223 17.506 10.427 17.6348 10.333L17.7066 10.4314C18.7371 9.67882 19.815 9.00282 20.9318 8.40702L20.8744 8.29954C21.0152 8.22444 21.1566 8.15061 21.2986 8.07806L21.354 8.18654C22.487 7.60759 23.6582 7.11022 24.8589 6.69814L24.8194 6.58292C24.9702 6.53114 25.1216 6.4807 25.2733 6.43161L25.3108 6.54752C26.5178 6.15717 27.7531 5.85241 29.0081 5.63693L28.9875 5.51687C29.1447 5.48988 29.3022 5.46429 29.4599 5.4401L29.4784 5.56051C30.728 5.3689 31.9959 5.26558 33.2737 5.25415L33.2726 5.13233C33.3524 5.13162 33.4322 5.13126 33.512 5.13126C33.5919 5.13126 33.6717 5.13162 33.7515 5.13233L33.7504 5.25415C35.0282 5.26558 36.2961 5.3689 37.5457 5.56051L37.5642 5.4401C37.7219 5.46429 37.8794 5.48988 38.0366 5.51687L38.016 5.63693C39.271 5.85242 40.5063 6.15717 41.7133 6.54752L41.7508 6.43162C41.9025 6.48071 42.0539 6.53114 42.2047 6.58292L42.1652 6.69814C43.3659 7.11022 44.5371 7.60759 45.6701 8.18654L45.7255 8.07806C45.8675 8.15061 46.0089 8.22444 46.1497 8.29954L46.0923 8.40702C47.2091 9.00282 48.287 9.67882 49.3175 10.4314L49.3893 10.333C49.5181 10.427 49.6461 10.5223 49.7734 10.6187L49.6998 10.7158C50.7057 11.4778 51.6643 12.3141 52.5673 13.2211L52.6536 13.1351C52.7099 13.1917 52.766 13.2485 52.8218 13.3056C52.8785 13.3634 52.9348 13.4215 52.9908 13.4798L52.903 13.5643C53.7998 14.497 54.6259 15.4878 55.3777 16.5279L55.4764 16.4566C55.5712 16.5877 55.6648 16.7196 55.7572 16.8522L55.6573 16.9219C56.3948 17.9805 57.0568 19.088 57.6395 20.2353L57.7482 20.1802C57.8214 20.3244 57.8934 20.4692 57.9641 20.6146L57.8546 20.6679C58.4176 21.8253 58.901 23.0216 59.3011 24.2479L59.4169 24.2101C59.467 24.3638 59.5159 24.5179 59.5634 24.6725L59.447 24.7083C59.8244 25.9359 60.119 27.192 60.3271 28.4679L60.4473 28.4483C60.4734 28.6078 60.498 28.7677 60.5214 28.9278L60.4008 28.9454C60.5855 30.2131 60.685 31.4992 60.6961 32.7952L60.8179 32.7942C60.8186 32.875 60.8189 32.956 60.8189 33.0369H61.0431C61.0431 32.9553 61.0428 32.8736 61.0421 32.7921L61.1639 32.791C61.1527 31.4728 61.0514 30.1645 60.8636 28.875L60.743 28.8925C60.7195 28.731 60.6946 28.5698 60.6684 28.4089L60.7886 28.3893C60.5769 27.0914 60.2773 25.8136 59.8933 24.565L59.7769 24.6008C59.729 24.4449 59.6797 24.2894 59.6291 24.1344L59.7449 24.0966C59.3379 22.8493 58.8462 21.6324 58.2735 20.455L58.164 20.5083C58.0926 20.3616 58.02 20.2156 57.9462 20.0702L58.0548 20.015C57.462 18.8479 56.7886 17.7214 56.0384 16.6445L55.9385 16.7142C55.8453 16.5804 55.7509 16.4474 55.6553 16.3152L55.754 16.2438C54.9893 15.1858 54.149 14.1779 53.2368 13.2291L53.1489 13.3135C53.0924 13.2548 53.0356 13.1962 52.9785 13.1378C52.9222 13.0803 52.8657 13.023 52.8089 12.966L52.8952 12.88C51.9767 11.9574 51.0016 11.1067 49.9784 10.3316L49.9049 10.4287C49.7765 10.3315 49.6475 10.2355 49.5177 10.1407L49.5895 10.0423C48.5413 9.27681 47.4449 8.58918 46.3088 7.98313L46.2515 8.09061C46.1096 8.0149 45.967 7.94047 45.8239 7.86733L45.8793 7.75885C44.7269 7.16993 43.5355 6.66401 42.3141 6.24484L42.2746 6.36006C42.1225 6.30786 41.9699 6.25702 41.8169 6.20753L41.8544 6.09163C40.6267 5.69456 39.3701 5.38455 38.0935 5.16536L38.0729 5.28542C37.9145 5.25822 37.7557 5.23242 37.5967 5.20804L37.6151 5.08762C36.344 4.89272 35.0543 4.78762 33.7545 4.77599L33.7534 4.8978C33.673 4.89708 33.5925 4.89672 33.512 4.89672C33.4315 4.89672 33.3511 4.89708 33.2707 4.8978L33.2696 4.77599C31.9698 4.78762 30.6801 4.89272 29.409 5.08762L29.4274 5.20804C29.2684 5.23242 29.1096 5.25822 28.9512 5.28542L28.9306 5.16536C27.654 5.38455 26.3974 5.69456 25.1697 6.09162L25.2072 6.20753C25.0542 6.25702 24.9016 6.30786 24.7495 6.36006L24.71 6.24483C23.4886 6.66401 22.2972 7.16993 21.1448 7.75885L21.2002 7.86732C21.057 7.94047 20.9145 8.0149 20.7726 8.09061L20.7153 7.98313C19.5792 8.58918 18.4828 9.27681 17.4346 10.0423L17.5064 10.1407C17.3766 10.2355 17.2476 10.3315 17.1192 10.4287L17.0457 10.3316C16.0225 11.1067 15.0474 11.9574 14.1288 12.88L14.2152 12.966C14.1584 13.023 14.1019 13.0803 14.0456 13.1378C13.9885 13.1962 13.9317 13.2547 13.8752 13.3135L13.7873 13.2291C12.8751 14.1779 12.0348 15.1858 11.2701 16.2438L11.3688 16.3151C11.2732 16.4474 11.1788 16.5804 11.0856 16.7142L10.9857 16.6445C10.2355 17.7214 9.56212 18.8479 8.9693 20.015L9.07792 20.0702C9.00406 20.2156 8.93147 20.3616 8.86013 20.5083L8.75058 20.455C8.17787 21.6324 7.68617 22.8493 7.27916 24.0966L7.39497 24.1344C7.34439 24.2894 7.29513 24.4449 7.2472 24.6008L7.13076 24.565C6.74683 25.8136 6.4472 27.0914 6.23549 28.3893L6.35572 28.4089C6.32947 28.5698 6.30458 28.731 6.28105 28.8925L6.1605 28.875Z" stroke="#7A7A7A" stroke-width="0.243638" stroke-dasharray="0.49 3.9"/>
<path d="M64.9752 33.0371C65.6929 33.0371 66.2774 32.4548 66.2489 31.7377C65.9231 23.5513 62.5281 15.7675 56.7125 9.95188C50.5899 3.82929 42.2859 0.389649 33.6272 0.389648C24.9686 0.389648 16.6646 3.82928 10.542 9.95188C4.72635 15.7675 1.3314 23.5513 1.00558 31.7376C0.977038 32.4548 1.56158 33.0371 2.27932 33.0371C2.99706 33.0371 3.57597 32.4548 3.60698 31.7378C3.93119 24.241 7.05172 17.1179 12.3799 11.7898C18.015 6.15461 25.6579 2.98881 33.6272 2.98882C41.5965 2.98882 49.2395 6.15461 54.8746 11.7898C60.2028 17.1179 63.3233 24.241 63.6475 31.7378C63.6785 32.4548 64.2574 33.0371 64.9752 33.0371Z" fill="#5DC7AA"/>
</svg>
