<svg width="6" height="7" viewBox="0 0 6 7" fill="none" xmlns="http://www.w3.org/2000/svg">
<g clip-path="url(#clip0_237_708)">
<mask id="path-1-inside-1_237_708" fill="white">
<path d="M3.01076 4.59961H1.37722C1.23774 4.59961 1.12427 4.71308 1.12427 4.85257V5.48871C1.12427 5.62819 1.23774 5.74166 1.37722 5.74166H3.01076C3.15024 5.74166 3.26371 5.62819 3.26371 5.48871V4.85256C3.26371 4.71308 3.15024 4.59961 3.01076 4.59961ZM3.0353 5.48871C3.0353 5.50224 3.02429 5.51325 3.01076 5.51325H1.37722C1.3637 5.51325 1.35268 5.50224 1.35268 5.48871V4.85256C1.35268 4.83903 1.36369 4.82801 1.37722 4.82801H3.01076C3.02429 4.82801 3.03531 4.83902 3.03531 4.85256V5.48871H3.0353Z"/>
</mask>
<path d="M3.01076 4.59961H1.37722C1.23774 4.59961 1.12427 4.71308 1.12427 4.85257V5.48871C1.12427 5.62819 1.23774 5.74166 1.37722 5.74166H3.01076C3.15024 5.74166 3.26371 5.62819 3.26371 5.48871V4.85256C3.26371 4.71308 3.15024 4.59961 3.01076 4.59961ZM3.0353 5.48871C3.0353 5.50224 3.02429 5.51325 3.01076 5.51325H1.37722C1.3637 5.51325 1.35268 5.50224 1.35268 5.48871V4.85256C1.35268 4.83903 1.36369 4.82801 1.37722 4.82801H3.01076C3.02429 4.82801 3.03531 4.83902 3.03531 4.85256V5.48871H3.0353Z" fill="#7C7C7C"/>
<path d="M3.0353 5.48871V5.24507H2.79167V5.48871H3.0353ZM3.03531 5.48871V5.73234H3.27895V5.48871H3.03531ZM3.01076 4.35597H1.37722V4.84325H3.01076V4.35597ZM1.37722 4.35597C1.10318 4.35597 0.88063 4.57853 0.88063 4.85257H1.36791C1.36791 4.85025 1.36858 4.8482 1.37072 4.84606C1.37285 4.84393 1.3749 4.84325 1.37722 4.84325V4.35597ZM0.88063 4.85257V5.48871H1.36791V4.85257H0.88063ZM0.88063 5.48871C0.88063 5.76275 1.10319 5.9853 1.37722 5.9853V5.49802C1.3749 5.49802 1.37285 5.49735 1.37072 5.49521C1.36858 5.49308 1.36791 5.49103 1.36791 5.48871H0.88063ZM1.37722 5.9853H3.01076V5.49802H1.37722V5.9853ZM3.01076 5.9853C3.2848 5.9853 3.50735 5.76274 3.50735 5.48871H3.02008C3.02008 5.49103 3.0194 5.49308 3.01726 5.49521C3.01513 5.49735 3.01308 5.49802 3.01076 5.49802V5.9853ZM3.50735 5.48871V4.85256H3.02008V5.48871H3.50735ZM3.50735 4.85256C3.50735 4.57852 3.28479 4.35597 3.01076 4.35597V4.84325C3.01308 4.84325 3.01513 4.84393 3.01727 4.84606C3.0194 4.8482 3.02008 4.85025 3.02008 4.85256H3.50735ZM2.79167 5.48871C2.79167 5.36773 2.88969 5.26961 3.01076 5.26961V5.75689C3.1589 5.75689 3.27894 5.63674 3.27894 5.48871H2.79167ZM3.01076 5.26961H1.37722V5.75689H3.01076V5.26961ZM1.37722 5.26961C1.4982 5.26961 1.59632 5.36764 1.59632 5.48871H1.10904C1.10904 5.63685 1.22919 5.75689 1.37722 5.75689V5.26961ZM1.59632 5.48871V4.85256H1.10904V5.48871H1.59632ZM1.59632 4.85256C1.59632 4.97354 1.49829 5.07165 1.37722 5.07165V4.58437C1.22908 4.58437 1.10904 4.70452 1.10904 4.85256H1.59632ZM1.37722 5.07165H3.01076V4.58437H1.37722V5.07165ZM3.01076 5.07165C2.88979 5.07165 2.79167 4.97363 2.79167 4.85256H3.27895C3.27895 4.70441 3.1588 4.58437 3.01076 4.58437V5.07165ZM2.79167 4.85256V5.48871H3.27895V4.85256H2.79167ZM3.03531 5.24507H3.0353V5.73234H3.03531V5.24507Z" fill="#7C7C7C" mask="url(#path-1-inside-1_237_708)"/>
<mask id="path-3-inside-2_237_708" fill="white">
<path d="M1.37722 2.98532H3.01076C3.15024 2.98532 3.26371 2.87184 3.26371 2.73236V2.09622C3.26371 1.95674 3.15024 1.84326 3.01076 1.84326H1.37722C1.23774 1.84326 1.12427 1.95674 1.12427 2.09622V2.73237C1.12427 2.87184 1.23774 2.98532 1.37722 2.98532ZM1.35268 2.09622C1.35268 2.08268 1.36369 2.07167 1.37722 2.07167H3.01076C3.02429 2.07167 3.03531 2.08268 3.03531 2.09622V2.73237C3.03531 2.7459 3.0243 2.75691 3.01076 2.75691H1.37722C1.3637 2.75691 1.35268 2.7459 1.35268 2.73237V2.09622Z"/>
</mask>
<path d="M1.37722 2.98532H3.01076C3.15024 2.98532 3.26371 2.87184 3.26371 2.73236V2.09622C3.26371 1.95674 3.15024 1.84326 3.01076 1.84326H1.37722C1.23774 1.84326 1.12427 1.95674 1.12427 2.09622V2.73237C1.12427 2.87184 1.23774 2.98532 1.37722 2.98532ZM1.35268 2.09622C1.35268 2.08268 1.36369 2.07167 1.37722 2.07167H3.01076C3.02429 2.07167 3.03531 2.08268 3.03531 2.09622V2.73237C3.03531 2.7459 3.0243 2.75691 3.01076 2.75691H1.37722C1.3637 2.75691 1.35268 2.7459 1.35268 2.73237V2.09622Z" fill="#7C7C7C"/>
<path d="M1.37722 3.22895H3.01076V2.74168H1.37722V3.22895ZM3.01076 3.22895C3.2848 3.22895 3.50735 3.00639 3.50735 2.73236H3.02008C3.02008 2.73468 3.0194 2.73673 3.01726 2.73887C3.01513 2.741 3.01308 2.74168 3.01076 2.74168V3.22895ZM3.50735 2.73236V2.09622H3.02008V2.73236H3.50735ZM3.50735 2.09622C3.50735 1.82218 3.2848 1.59962 3.01076 1.59962V2.0869C3.01308 2.0869 3.01513 2.08758 3.01726 2.08971C3.0194 2.09185 3.02008 2.0939 3.02008 2.09622H3.50735ZM3.01076 1.59962H1.37722V2.0869H3.01076V1.59962ZM1.37722 1.59962C1.10318 1.59962 0.88063 1.82218 0.88063 2.09622H1.36791C1.36791 2.0939 1.36858 2.09185 1.37072 2.08971C1.37285 2.08758 1.3749 2.0869 1.37722 2.0869V1.59962ZM0.88063 2.09622V2.73237H1.36791V2.09622H0.88063ZM0.88063 2.73237C0.88063 3.0064 1.10319 3.22895 1.37722 3.22895V2.74168C1.3749 2.74168 1.37285 2.741 1.37072 2.73886C1.36858 2.73673 1.36791 2.73468 1.36791 2.73237H0.88063ZM1.59632 2.09622C1.59632 2.21724 1.49825 2.31531 1.37722 2.31531V1.82803C1.22913 1.82803 1.10904 1.94812 1.10904 2.09622H1.59632ZM1.37722 2.31531H3.01076V1.82803H1.37722V2.31531ZM3.01076 2.31531C2.88979 2.31531 2.79167 2.21729 2.79167 2.09622H3.27895C3.27895 1.94807 3.1588 1.82803 3.01076 1.82803V2.31531ZM2.79167 2.09622V2.73237H3.27895V2.09622H2.79167ZM2.79167 2.73237C2.79167 2.61139 2.8897 2.51327 3.01076 2.51327V3.00055C3.15891 3.00055 3.27895 2.8804 3.27895 2.73237H2.79167ZM3.01076 2.51327H1.37722V3.00055H3.01076V2.51327ZM1.37722 2.51327C1.4982 2.51327 1.59632 2.6113 1.59632 2.73237H1.10904C1.10904 2.88051 1.22919 3.00055 1.37722 3.00055V2.51327ZM1.59632 2.73237V2.09622H1.10904V2.73237H1.59632Z" fill="#7C7C7C" mask="url(#path-3-inside-2_237_708)"/>
<path d="M3.61502 3.22168H1.98147C1.842 3.22168 1.72852 3.33515 1.72852 3.47464V4.11078C1.72852 4.25026 1.84199 4.36374 1.98147 4.36374H3.61502C3.7545 4.36374 3.86797 4.25027 3.86797 4.11078V3.47464C3.86796 3.33515 3.7545 3.22168 3.61502 3.22168ZM3.63955 4.11078C3.63955 4.12431 3.62855 4.13532 3.61501 4.13532H1.98147C1.96794 4.13532 1.95693 4.12431 1.95693 4.11078V3.47463C1.95693 3.4611 1.96794 3.45008 1.98147 3.45008H3.61502C3.62855 3.45008 3.63956 3.46109 3.63956 3.47463L3.63955 4.11078Z" fill="#7C7C7C"/>
<path d="M4.68256 2.30017H3.88201L3.92277 2.25941C3.96737 2.21481 3.96737 2.1425 3.92277 2.0979C3.87818 2.0533 3.80586 2.0533 3.76126 2.0979L3.52554 2.33362C3.48139 2.37616 3.4814 2.4526 3.52554 2.49513L3.76126 2.73085C3.78356 2.75315 3.81279 2.7643 3.84201 2.7643C3.87123 2.7643 3.90047 2.75315 3.92276 2.73085C3.96736 2.68625 3.96736 2.61394 3.92276 2.56934L3.88201 2.52858H4.68256C4.74402 2.52858 4.79403 2.57858 4.79403 2.64005V3.56678C4.79403 3.62824 4.74403 3.67825 4.68256 3.67825H4.21048C4.14741 3.67825 4.09627 3.72938 4.09627 3.79245C4.09627 3.85553 4.14741 3.90666 4.21048 3.90666H4.68256C4.86997 3.90666 5.02244 3.7542 5.02244 3.56678V2.64005C5.02244 2.45264 4.86998 2.30017 4.68256 2.30017Z" fill="#7C7C7C"/>
<path d="M3.2969 3.67822H2.29951C2.23644 3.67822 2.1853 3.72936 2.1853 3.79243C2.1853 3.8555 2.23644 3.90663 2.29951 3.90663H3.2969C3.35997 3.90663 3.41111 3.8555 3.41111 3.79243C3.41111 3.72936 3.35998 3.67822 3.2969 3.67822Z" fill="#7C7C7C"/>
</g>
<defs>
<clipPath id="clip0_237_708">
<rect width="5.84731" height="5.84731" fill="white" transform="translate(0.149902 0.868652)"/>
</clipPath>
</defs>
</svg>
