<svg width="6" height="7" viewBox="0 0 6 7" fill="none" xmlns="http://www.w3.org/2000/svg">
<g clip-path="url(#clip0_237_728)">
<g clip-path="url(#clip1_237_728)">
<mask id="path-1-inside-1_237_728" fill="white">
<path d="M1.51416 2.01287C1.51416 1.90948 1.55523 1.81033 1.62834 1.73722C1.70144 1.66412 1.80059 1.62305 1.90398 1.62305H4.24291C4.34629 1.62305 4.44545 1.66412 4.51855 1.73722C4.59166 1.81033 4.63273 1.90948 4.63273 2.01287C4.63273 2.11625 4.59166 2.21541 4.51855 2.28851C4.44545 2.36162 4.34629 2.40269 4.24291 2.40269H1.90398C1.80059 2.40269 1.70144 2.36162 1.62834 2.28851C1.55523 2.21541 1.51416 2.11625 1.51416 2.01287ZM1.90398 1.81796C1.85229 1.81796 1.80271 1.83849 1.76616 1.87505C1.72961 1.9116 1.70907 1.96117 1.70907 2.01287C1.70907 2.06456 1.72961 2.11414 1.76616 2.15069C1.80271 2.18724 1.85229 2.20778 1.90398 2.20778H4.24291C4.2946 2.20778 4.34418 2.18724 4.38073 2.15069C4.41728 2.11414 4.43782 2.06456 4.43782 2.01287C4.43782 1.96117 4.41728 1.9116 4.38073 1.87505C4.34418 1.83849 4.2946 1.81796 4.24291 1.81796H1.90398ZM1.90398 3.18233C1.90398 3.07894 1.94505 2.97979 2.01816 2.90669C2.09126 2.83358 2.19041 2.79251 2.2938 2.79251H3.85309C3.95647 2.79251 4.05562 2.83358 4.12873 2.90669C4.20184 2.97979 4.24291 3.07894 4.24291 3.18233C4.24291 3.28572 4.20184 3.38487 4.12873 3.45798C4.05562 3.53108 3.95647 3.57215 3.85309 3.57215H2.2938C2.19041 3.57215 2.09126 3.53108 2.01816 3.45798C1.94505 3.38487 1.90398 3.28572 1.90398 3.18233ZM2.2938 2.98742C2.24211 2.98742 2.19253 3.00796 2.15598 3.04451C2.11943 3.08106 2.09889 3.13064 2.09889 3.18233C2.09889 3.23402 2.11943 3.2836 2.15598 3.32015C2.19253 3.35671 2.24211 3.37724 2.2938 3.37724H3.85309C3.90478 3.37724 3.95436 3.35671 3.99091 3.32015C4.02746 3.2836 4.048 3.23402 4.048 3.18233C4.048 3.13064 4.02746 3.08106 3.99091 3.04451C3.95436 3.00796 3.90478 2.98742 3.85309 2.98742H2.2938ZM2.68362 3.96197C2.58024 3.96197 2.48108 4.00304 2.40798 4.07615C2.33487 4.14925 2.2938 4.24841 2.2938 4.35179C2.2938 4.45518 2.33487 4.55433 2.40798 4.62744C2.48108 4.70054 2.58024 4.74161 2.68362 4.74161H3.46326C3.56665 4.74161 3.6658 4.70054 3.73891 4.62744C3.81202 4.55433 3.85309 4.45518 3.85309 4.35179C3.85309 4.24841 3.81202 4.14925 3.73891 4.07615C3.6658 4.00304 3.56665 3.96197 3.46326 3.96197H2.68362ZM2.48871 4.35179C2.48871 4.3001 2.50925 4.25052 2.5458 4.21397C2.58235 4.17742 2.63193 4.15688 2.68362 4.15688H3.46326C3.51496 4.15688 3.56453 4.17742 3.60109 4.21397C3.63764 4.25052 3.65817 4.3001 3.65817 4.35179C3.65817 4.40349 3.63764 4.45306 3.60109 4.48962C3.56453 4.52617 3.51496 4.5467 3.46326 4.5467H2.68362C2.63193 4.5467 2.58235 4.52617 2.5458 4.48962C2.50925 4.45306 2.48871 4.40349 2.48871 4.35179Z"/>
</mask>
<path d="M1.51416 2.01287C1.51416 1.90948 1.55523 1.81033 1.62834 1.73722C1.70144 1.66412 1.80059 1.62305 1.90398 1.62305H4.24291C4.34629 1.62305 4.44545 1.66412 4.51855 1.73722C4.59166 1.81033 4.63273 1.90948 4.63273 2.01287C4.63273 2.11625 4.59166 2.21541 4.51855 2.28851C4.44545 2.36162 4.34629 2.40269 4.24291 2.40269H1.90398C1.80059 2.40269 1.70144 2.36162 1.62834 2.28851C1.55523 2.21541 1.51416 2.11625 1.51416 2.01287ZM1.90398 1.81796C1.85229 1.81796 1.80271 1.83849 1.76616 1.87505C1.72961 1.9116 1.70907 1.96117 1.70907 2.01287C1.70907 2.06456 1.72961 2.11414 1.76616 2.15069C1.80271 2.18724 1.85229 2.20778 1.90398 2.20778H4.24291C4.2946 2.20778 4.34418 2.18724 4.38073 2.15069C4.41728 2.11414 4.43782 2.06456 4.43782 2.01287C4.43782 1.96117 4.41728 1.9116 4.38073 1.87505C4.34418 1.83849 4.2946 1.81796 4.24291 1.81796H1.90398ZM1.90398 3.18233C1.90398 3.07894 1.94505 2.97979 2.01816 2.90669C2.09126 2.83358 2.19041 2.79251 2.2938 2.79251H3.85309C3.95647 2.79251 4.05562 2.83358 4.12873 2.90669C4.20184 2.97979 4.24291 3.07894 4.24291 3.18233C4.24291 3.28572 4.20184 3.38487 4.12873 3.45798C4.05562 3.53108 3.95647 3.57215 3.85309 3.57215H2.2938C2.19041 3.57215 2.09126 3.53108 2.01816 3.45798C1.94505 3.38487 1.90398 3.28572 1.90398 3.18233ZM2.2938 2.98742C2.24211 2.98742 2.19253 3.00796 2.15598 3.04451C2.11943 3.08106 2.09889 3.13064 2.09889 3.18233C2.09889 3.23402 2.11943 3.2836 2.15598 3.32015C2.19253 3.35671 2.24211 3.37724 2.2938 3.37724H3.85309C3.90478 3.37724 3.95436 3.35671 3.99091 3.32015C4.02746 3.2836 4.048 3.23402 4.048 3.18233C4.048 3.13064 4.02746 3.08106 3.99091 3.04451C3.95436 3.00796 3.90478 2.98742 3.85309 2.98742H2.2938ZM2.68362 3.96197C2.58024 3.96197 2.48108 4.00304 2.40798 4.07615C2.33487 4.14925 2.2938 4.24841 2.2938 4.35179C2.2938 4.45518 2.33487 4.55433 2.40798 4.62744C2.48108 4.70054 2.58024 4.74161 2.68362 4.74161H3.46326C3.56665 4.74161 3.6658 4.70054 3.73891 4.62744C3.81202 4.55433 3.85309 4.45518 3.85309 4.35179C3.85309 4.24841 3.81202 4.14925 3.73891 4.07615C3.6658 4.00304 3.56665 3.96197 3.46326 3.96197H2.68362ZM2.48871 4.35179C2.48871 4.3001 2.50925 4.25052 2.5458 4.21397C2.58235 4.17742 2.63193 4.15688 2.68362 4.15688H3.46326C3.51496 4.15688 3.56453 4.17742 3.60109 4.21397C3.63764 4.25052 3.65817 4.3001 3.65817 4.35179C3.65817 4.40349 3.63764 4.45306 3.60109 4.48962C3.56453 4.52617 3.51496 4.5467 3.46326 4.5467H2.68362C2.63193 4.5467 2.58235 4.52617 2.5458 4.48962C2.50925 4.45306 2.48871 4.40349 2.48871 4.35179Z" fill="#7C7C7C"/>
<path d="M1.51416 2.01287H1.27052H1.51416ZM1.90398 1.62305V1.37941V1.62305ZM4.24291 1.62305V1.37941V1.62305ZM4.24291 2.40269V2.64633V2.40269ZM1.90398 2.40269V2.64633V2.40269ZM1.90398 1.81796V1.57432V1.81796ZM1.70907 2.01287H1.46543H1.70907ZM4.24291 1.81796V1.57432V1.81796ZM1.90398 3.18233H1.66034H1.90398ZM2.2938 2.79251V3.03615V2.79251ZM2.2938 4.35179H2.05016H2.2938ZM1.7578 2.01287C1.7578 1.9741 1.7732 1.93692 1.80061 1.9095L1.45606 1.56494C1.33726 1.68374 1.27052 1.84486 1.27052 2.01287H1.7578ZM1.80061 1.9095C1.82803 1.88209 1.86521 1.86668 1.90398 1.86668V1.37941C1.73598 1.37941 1.57485 1.44615 1.45606 1.56494L1.80061 1.9095ZM1.90398 1.86668H4.24291V1.37941H1.90398V1.86668ZM4.24291 1.86668C4.28168 1.86668 4.31886 1.88209 4.34627 1.9095L4.69083 1.56494C4.57203 1.44615 4.41091 1.37941 4.24291 1.37941V1.86668ZM4.34627 1.9095C4.37369 1.93692 4.38909 1.9741 4.38909 2.01287H4.87637C4.87637 1.84486 4.80963 1.68374 4.69083 1.56494L4.34627 1.9095ZM4.38909 2.01287C4.38909 2.05164 4.37369 2.08882 4.34627 2.11623L4.69083 2.46079C4.80963 2.34199 4.87637 2.18087 4.87637 2.01287H4.38909ZM4.34627 2.11623C4.31886 2.14365 4.28168 2.15905 4.24291 2.15905V2.64633C4.41091 2.64633 4.57203 2.57959 4.69083 2.46079L4.34627 2.11623ZM4.24291 2.15905H1.90398V2.64633H4.24291V2.15905ZM1.90398 2.15905C1.86521 2.15905 1.82803 2.14365 1.80061 2.11623L1.45606 2.46079C1.57485 2.57959 1.73598 2.64633 1.90398 2.64633V2.15905ZM1.80061 2.11623C1.7732 2.08882 1.7578 2.05164 1.7578 2.01287H1.27052C1.27052 2.18087 1.33726 2.34199 1.45606 2.46079L1.80061 2.11623ZM1.90398 1.57432C1.78767 1.57432 1.67612 1.62052 1.59388 1.70277L1.93844 2.04732C1.9293 2.05646 1.9169 2.0616 1.90398 2.0616V1.57432ZM1.59388 1.70277C1.51164 1.78501 1.46543 1.89656 1.46543 2.01287H1.95271C1.95271 2.02579 1.94757 2.03819 1.93844 2.04732L1.59388 1.70277ZM1.46543 2.01287C1.46543 2.12918 1.51164 2.24072 1.59388 2.32297L1.93844 1.97841C1.94757 1.98755 1.95271 1.99994 1.95271 2.01287H1.46543ZM1.59388 2.32297C1.67612 2.40521 1.78767 2.45142 1.90398 2.45142V1.96414C1.9169 1.96414 1.9293 1.96927 1.93844 1.97841L1.59388 2.32297ZM1.90398 2.45142H4.24291V1.96414H1.90398V2.45142ZM4.24291 2.45142C4.35922 2.45142 4.47076 2.40521 4.55301 2.32297L4.20845 1.97841C4.21759 1.96927 4.22998 1.96414 4.24291 1.96414V2.45142ZM4.55301 2.32297C4.63525 2.24072 4.68145 2.12918 4.68145 2.01287H4.19418C4.19418 1.99994 4.19931 1.98755 4.20845 1.97841L4.55301 2.32297ZM4.68145 2.01287C4.68145 1.89656 4.63525 1.78501 4.55301 1.70277L4.20845 2.04732C4.19931 2.03818 4.19418 2.02579 4.19418 2.01287H4.68145ZM4.55301 1.70277C4.47076 1.62052 4.35922 1.57432 4.24291 1.57432V2.0616C4.22998 2.0616 4.21759 2.05646 4.20845 2.04732L4.55301 1.70277ZM4.24291 1.57432H1.90398V2.0616H4.24291V1.57432ZM2.14762 3.18233C2.14762 3.14356 2.16302 3.10638 2.19043 3.07896L1.84588 2.73441C1.72708 2.8532 1.66034 3.01433 1.66034 3.18233H2.14762ZM2.19043 3.07896C2.21785 3.05155 2.25503 3.03615 2.2938 3.03615V2.54887C2.1258 2.54887 1.96468 2.61561 1.84588 2.73441L2.19043 3.07896ZM2.2938 3.03615H3.85309V2.54887H2.2938V3.03615ZM3.85309 3.03615C3.89186 3.03615 3.92904 3.05155 3.95645 3.07896L4.30101 2.73441C4.18221 2.61561 4.02109 2.54887 3.85309 2.54887V3.03615ZM3.95645 3.07896C3.98387 3.10638 3.99927 3.14356 3.99927 3.18233H4.48654C4.48654 3.01433 4.4198 2.8532 4.30101 2.73441L3.95645 3.07896ZM3.99927 3.18233C3.99927 3.2211 3.98387 3.25828 3.95645 3.2857L4.30101 3.63025C4.4198 3.51146 4.48654 3.35033 4.48654 3.18233H3.99927ZM3.95645 3.2857C3.92904 3.31311 3.89186 3.32851 3.85309 3.32851V3.81579C4.02109 3.81579 4.18221 3.74905 4.30101 3.63025L3.95645 3.2857ZM3.85309 3.32851H2.2938V3.81579H3.85309V3.32851ZM2.2938 3.32851C2.25503 3.32851 2.21785 3.31311 2.19043 3.2857L1.84588 3.63025C1.96468 3.74905 2.1258 3.81579 2.2938 3.81579V3.32851ZM2.19043 3.2857C2.16302 3.25828 2.14762 3.2211 2.14762 3.18233H1.66034C1.66034 3.35033 1.72708 3.51146 1.84588 3.63025L2.19043 3.2857ZM2.2938 2.74378C2.17749 2.74378 2.06595 2.78999 1.9837 2.87223L2.32826 3.21679C2.31912 3.22592 2.30673 3.23106 2.2938 3.23106V2.74378ZM1.9837 2.87223C1.90146 2.95447 1.85525 3.06602 1.85525 3.18233H2.34253C2.34253 3.19525 2.3374 3.20765 2.32826 3.21679L1.9837 2.87223ZM1.85525 3.18233C1.85525 3.29864 1.90146 3.41019 1.9837 3.49243L2.32826 3.14787C2.3374 3.15701 2.34253 3.16941 2.34253 3.18233H1.85525ZM1.9837 3.49243C2.06595 3.57467 2.17749 3.62088 2.2938 3.62088V3.1336C2.30673 3.1336 2.31912 3.13874 2.32826 3.14787L1.9837 3.49243ZM2.2938 3.62088H3.85309V3.1336H2.2938V3.62088ZM3.85309 3.62088C3.9694 3.62088 4.08094 3.57467 4.16319 3.49243L3.81863 3.14787C3.82777 3.13874 3.84016 3.1336 3.85309 3.1336V3.62088ZM4.16319 3.49243C4.24543 3.41019 4.29163 3.29864 4.29163 3.18233H3.80436C3.80436 3.16941 3.80949 3.15701 3.81863 3.14787L4.16319 3.49243ZM4.29163 3.18233C4.29163 3.06602 4.24543 2.95447 4.16319 2.87223L3.81863 3.21679C3.80949 3.20765 3.80436 3.19525 3.80436 3.18233H4.29163ZM4.16319 2.87223C4.08094 2.78999 3.9694 2.74378 3.85309 2.74378V3.23106C3.84016 3.23106 3.82777 3.22592 3.81863 3.21679L4.16319 2.87223ZM3.85309 2.74378H2.2938V3.23106H3.85309V2.74378ZM2.68362 3.71833C2.51562 3.71833 2.3545 3.78507 2.2357 3.90387L2.58026 4.24843C2.60767 4.22101 2.64485 4.20561 2.68362 4.20561V3.71833ZM2.2357 3.90387C2.1169 4.02267 2.05016 4.18379 2.05016 4.35179H2.53744C2.53744 4.31302 2.55284 4.27584 2.58026 4.24843L2.2357 3.90387ZM2.05016 4.35179C2.05016 4.5198 2.1169 4.68092 2.2357 4.79972L2.58026 4.45516C2.55284 4.42775 2.53744 4.39056 2.53744 4.35179H2.05016ZM2.2357 4.79972C2.3545 4.91851 2.51562 4.98525 2.68362 4.98525V4.49798C2.64485 4.49798 2.60767 4.48257 2.58026 4.45516L2.2357 4.79972ZM2.68362 4.98525H3.46326V4.49798H2.68362V4.98525ZM3.46326 4.98525C3.63127 4.98525 3.79239 4.91851 3.91119 4.79972L3.56663 4.45516C3.53922 4.48257 3.50203 4.49798 3.46326 4.49798V4.98525ZM3.91119 4.79972C4.02998 4.68092 4.09672 4.5198 4.09672 4.35179H3.60945C3.60945 4.39056 3.59405 4.42775 3.56663 4.45516L3.91119 4.79972ZM4.09672 4.35179C4.09672 4.18379 4.02998 4.02267 3.91119 3.90387L3.56663 4.24843C3.59405 4.27584 3.60945 4.31302 3.60945 4.35179H4.09672ZM3.91119 3.90387C3.79239 3.78507 3.63127 3.71833 3.46326 3.71833V4.20561C3.50203 4.20561 3.53922 4.22101 3.56663 4.24843L3.91119 3.90387ZM3.46326 3.71833H2.68362V4.20561H3.46326V3.71833ZM2.73235 4.35179C2.73235 4.36472 2.72722 4.37711 2.71808 4.38625L2.37352 4.04169C2.29128 4.12394 2.24507 4.23548 2.24507 4.35179H2.73235ZM2.71808 4.38625C2.70894 4.39539 2.69655 4.40052 2.68362 4.40052V3.91324C2.56731 3.91324 2.45577 3.95945 2.37352 4.04169L2.71808 4.38625ZM2.68362 4.40052H3.46326V3.91324H2.68362V4.40052ZM3.46326 4.40052C3.45034 4.40052 3.43795 4.39539 3.42881 4.38625L3.77337 4.04169C3.69112 3.95945 3.57958 3.91324 3.46326 3.91324V4.40052ZM3.42881 4.38625C3.41967 4.37711 3.41454 4.36472 3.41454 4.35179H3.90181C3.90181 4.23548 3.85561 4.12394 3.77337 4.04169L3.42881 4.38625ZM3.41454 4.35179C3.41454 4.33887 3.41967 4.32648 3.42881 4.31734L3.77337 4.66189C3.85561 4.57965 3.90181 4.4681 3.90181 4.35179H3.41454ZM3.42881 4.31734C3.43795 4.3082 3.45034 4.30307 3.46326 4.30307V4.79034C3.57957 4.79034 3.69112 4.74414 3.77337 4.66189L3.42881 4.31734ZM3.46326 4.30307H2.68362V4.79034H3.46326V4.30307ZM2.68362 4.30307C2.69655 4.30307 2.70894 4.3082 2.71808 4.31734L2.37352 4.66189C2.45577 4.74414 2.56731 4.79034 2.68362 4.79034V4.30307ZM2.71808 4.31734C2.72722 4.32648 2.73235 4.33887 2.73235 4.35179H2.24507C2.24507 4.4681 2.29128 4.57965 2.37352 4.66189L2.71808 4.31734Z" fill="#7C7C7C" mask="url(#path-1-inside-1_237_728)"/>
</g>
</g>
<defs>
<clipPath id="clip0_237_728">
<rect width="5.84731" height="5.84731" fill="white" transform="translate(0.149902 0.258789)"/>
</clipPath>
<clipPath id="clip1_237_728">
<rect width="3.89821" height="3.89821" fill="white" transform="translate(1.12427 1.2334)"/>
</clipPath>
</defs>
</svg>
