<svg width="135" height="30" viewBox="0 0 135 30" fill="none" xmlns="http://www.w3.org/2000/svg">
<path d="M0.804932 1.85596L1.97824 5.2834C3.15155 8.71084 5.49817 15.5657 7.84479 17.3386C10.1914 19.1114 12.538 15.8022 14.8846 11.9103C17.2313 8.01846 19.5779 3.5439 21.9245 2.34055C24.2711 1.13719 26.6177 3.20504 28.9644 6.82906C31.311 10.4531 33.6576 15.6333 36.0042 16.2654C38.3508 16.8975 40.6975 12.9815 43.0441 12.17C45.3907 11.3584 47.7373 13.6512 50.0839 15.331C52.4305 17.0108 54.7772 18.0777 57.1238 17.9208C59.4704 17.7639 61.817 16.3833 64.1636 13.3437C66.5103 10.304 68.8569 5.60541 71.2035 4.66372C73.5501 3.72203 75.8967 6.53728 78.2433 6.1198C80.59 5.70232 82.9366 2.05211 85.2832 2.89482C87.6298 3.73754 89.9764 9.0732 92.3231 9.90381C94.6697 10.7344 97.0163 7.05997 99.3629 4.97908C101.71 2.89819 104.056 2.41085 106.403 3.10312C108.749 3.79539 111.096 5.66728 113.443 6.53837C115.789 7.40947 118.136 7.27978 120.482 8.28545C122.829 9.29112 125.176 11.4322 127.522 10.8366C129.869 10.2411 132.216 6.90897 133.389 5.24291L134.562 3.57686" stroke="#006AFF" stroke-opacity="0.8" stroke-width="0.365457" stroke-linecap="round"/>
<path d="M134.571 7.21533L133.397 10.6764C132.224 14.1375 129.877 21.0597 127.531 22.85C125.184 24.6402 122.837 21.2985 120.491 17.3684C118.144 13.4383 115.798 8.91985 113.451 7.70468C111.104 6.48951 108.758 8.57766 106.411 12.2373C104.065 15.8969 101.718 21.1279 99.3713 21.7662C97.0247 22.4046 94.678 18.4502 92.3314 17.6306C89.9848 16.8111 87.6382 19.1264 85.2916 20.8227C82.9449 22.519 80.5983 23.5964 78.2517 23.4379C75.9051 23.2795 73.5585 21.8853 71.2119 18.8159C68.8652 15.7464 66.5186 11.0016 64.172 10.0507C61.8254 9.09973 60.3189 21.2443 57.9723 20.8227C55.6257 20.4011 55.3843 27.2811 53.0377 28.1321C50.6911 28.9831 45.399 14.5034 43.0524 15.3422C40.7058 16.181 39.3469 28.9949 37.0003 26.8936C34.6536 24.7923 29.3406 13.0089 26.994 13.708C24.6474 14.407 24.2795 11.0641 21.9329 11.9437C19.5862 12.8234 17.2396 12.6924 14.893 13.708C12.5464 14.7235 10.1998 16.8856 7.85315 16.2842C5.50653 15.6828 3.15991 12.318 1.9866 10.6355L0.813282 8.95313" stroke="#995AB3" stroke-width="0.365457" stroke-linecap="round" stroke-dasharray="0.97 0.97"/>
</svg>
