<svg width="98" height="24" viewBox="0 0 98 24" fill="none" xmlns="http://www.w3.org/2000/svg">
<path d="M15.6191 0.401367C15.6477 0.599744 15.6742 0.850346 15.6984 1.15096C15.727 1.45378 15.7425 1.73049 15.7425 1.97889C15.7425 2.63031 15.6852 3.11845 15.5749 3.44314C15.469 3.76987 15.2793 3.99656 15.0101 4.12287C14.7387 4.24495 14.3307 4.30583 13.7835 4.30583H10.2097V18.5293C10.0553 18.5576 9.77964 18.5903 9.38033 18.6252C8.98531 18.66 8.63459 18.6774 8.33021 18.6774C7.51838 18.6774 6.92044 18.6208 6.53882 18.5118C6.15496 18.4029 5.89693 18.2134 5.76234 17.9453C5.62552 17.6796 5.55943 17.2547 5.55943 16.673V4.30583H0.132364C0.0971709 4.12729 0.0640378 3.88534 0.0353686 3.58252C0.0111628 3.2819 0 2.99637 0 2.72847C0 2.07909 0.0552819 1.59112 0.167727 1.26422C0.278112 0.939525 0.470042 0.715206 0.741284 0.593128C1.01047 0.466811 1.40754 0.401367 1.93251 0.401367H15.6191Z" fill="white"/>
<path d="M32.6288 15.4965C32.6641 15.66 32.6928 15.8168 32.717 15.9672C32.7391 16.1198 32.7524 16.2788 32.7524 16.4465C32.7524 17.2833 32.5163 17.8933 32.0465 18.2768C31.7927 18.4728 31.4839 18.6036 31.1199 18.669C30.7536 18.7387 30.3433 18.7734 29.8844 18.7734C29.1433 18.7734 28.5255 18.6624 28.0314 18.4423C27.5416 18.2158 27.1777 17.8279 26.9371 17.2744C26.4297 17.7931 25.8341 18.1853 25.1459 18.4511C24.462 18.7168 23.7252 18.852 22.931 18.852C21.8478 18.852 20.8529 18.5752 19.9484 18.024C19.0416 17.4728 18.3202 16.6688 17.7863 15.6099C17.2569 14.5467 16.9922 13.2806 16.9922 11.8099C16.9922 10.324 17.2701 9.04503 17.8305 7.97533C18.3887 6.90104 19.1276 6.08838 20.0454 5.53496C20.9676 4.98374 21.9801 4.70703 23.0809 4.70703C23.7737 4.70703 24.4398 4.82911 25.0752 5.07309C25.7105 5.31708 26.2709 5.67229 26.7607 6.13636C26.9306 5.68959 27.2195 5.36727 27.6254 5.16889C28.0314 4.96628 28.6072 4.86387 29.355 4.86387C29.6418 4.86387 29.9462 4.88133 30.264 4.91626C30.586 4.94661 30.8573 4.97713 31.0758 5.01206V14.4421C31.0758 14.8604 31.1332 15.1567 31.2523 15.331C31.3757 15.5053 31.6053 15.5925 31.9405 15.5925C32.2097 15.5925 32.4391 15.562 32.6288 15.4965ZM21.5103 11.7838C21.5103 12.4985 21.6294 13.1216 21.872 13.6489C22.1192 14.1784 22.4632 14.577 22.9044 14.8429C23.3458 15.1109 23.8354 15.2439 24.3782 15.2439C24.8017 15.2439 25.1988 15.1784 25.5694 15.0433C25.9401 14.9105 26.2776 14.7188 26.5842 14.4682V9.09946C25.9423 8.58317 25.1988 8.32392 24.3516 8.32392C23.7913 8.32392 23.3016 8.45889 22.878 8.72475C22.4544 8.99281 22.1192 9.39143 21.872 9.91873C21.6294 10.4416 21.5103 11.0649 21.5103 11.7838Z" fill="white"/>
<path d="M43.0341 4.70703C44.1505 4.70703 45.163 4.96848 46.0698 5.49138C46.9742 6.00987 47.6935 6.79863 48.2229 7.8619C48.7566 8.92092 49.0258 10.2195 49.0258 11.7577C49.0258 13.2633 48.7456 14.5467 48.1875 15.6099C47.6339 16.6688 46.8772 17.4728 45.9197 18.024C44.9601 18.5752 43.8901 18.852 42.7076 18.852C42.0657 18.852 41.4657 18.767 40.9076 18.5992C40.3473 18.4315 39.8486 18.207 39.4074 17.9282V22.9656C39.2 23.0004 38.9353 23.0287 38.6132 23.0528C38.2956 23.0745 37.9911 23.0875 37.7044 23.0875C36.9918 23.0875 36.4424 23.0201 36.0541 22.8871C35.6659 22.752 35.3835 22.5168 35.2071 22.1813C35.0306 21.85 34.9423 21.3576 34.9423 20.7084V9.17797C34.9423 8.77274 34.8739 8.48076 34.7394 8.30646C34.6026 8.13216 34.3643 8.04501 34.0246 8.04501C33.7709 8.04501 33.5592 8.07112 33.3892 8.12334C33.3054 7.85766 33.2656 7.53737 33.2656 7.1647C33.2656 6.36288 33.4907 5.78776 33.9451 5.43916C34.4217 5.05563 35.1408 4.86387 36.1071 4.86387C36.8527 4.86387 37.4704 4.97713 37.9602 5.20382C38.4477 5.4261 38.8118 5.7964 39.0544 6.3193C39.5419 5.7964 40.1265 5.39982 40.8104 5.12531C41.4987 4.8464 42.2399 4.70703 43.0341 4.70703ZM41.64 15.2439C42.1981 15.2439 42.6923 15.1109 43.1223 14.8429C43.557 14.577 43.8945 14.1784 44.1373 13.6489C44.3843 13.1216 44.5077 12.4985 44.5077 11.7838C44.5077 11.0474 44.3843 10.4199 44.1373 9.90128C43.8945 9.38499 43.557 8.99281 43.1223 8.72475C42.6923 8.45889 42.1981 8.32392 41.64 8.32392C41.1988 8.32392 40.7862 8.3914 40.4046 8.52433C40.0273 8.65947 39.6942 8.85107 39.4074 9.09946V14.4421C40.0649 14.978 40.8104 15.2439 41.64 15.2439Z" fill="white"/>
<path d="M66.0654 8.01815C66.7757 8.01815 67.3405 8.09428 67.7598 8.24467C68.1833 8.39727 68.5009 8.67177 68.7127 9.07259C68.9245 9.47359 69.0303 10.0445 69.0303 10.7808C69.0303 12.4194 68.6731 13.8465 67.9627 15.06C67.2568 16.2693 66.2463 17.204 64.9359 17.8664C63.6233 18.5223 62.0946 18.8512 60.3473 18.8512C58.353 18.8512 56.65 18.4939 55.238 17.7793C53.8262 17.0602 52.7452 15.9969 51.9996 14.5895C51.2518 13.1841 50.8789 11.478 50.8789 9.47359C50.8789 7.51695 51.2847 5.82176 52.0966 4.39243C52.9129 2.9631 54.0754 1.87373 55.5822 1.12431C57.0867 0.374718 58.8647 0 60.9121 0C61.9224 0 62.8556 0.10462 63.7093 0.313678C64.5675 0.518498 65.3088 0.806227 65.933 1.17653C66.4272 1.42713 66.8022 1.73435 67.0626 2.10042C67.3273 2.46648 67.4597 2.87595 67.4597 3.32917C67.4597 3.90005 67.3318 4.38378 67.0803 4.7846C66.8266 5.1856 66.511 5.50368 66.1361 5.73461C65.494 5.15508 64.7418 4.68017 63.8771 4.3141C63.0166 3.94363 62.0702 3.75627 61.0355 3.75627C59.8356 3.75627 58.8141 4.00026 57.9736 4.4884C57.1376 4.97214 56.5087 5.64746 56.0852 6.51896C55.6617 7.38622 55.4499 8.37098 55.4499 9.47359C55.4499 10.5608 55.6395 11.5282 56.0234 12.3758C56.405 13.219 56.9676 13.8813 57.7089 14.3628C58.4545 14.8465 59.3612 15.0861 60.4268 15.0861C61.1724 15.0861 61.8496 14.9512 62.4563 14.6766C63.0675 14.4042 63.577 13.9967 63.983 13.4564C64.3888 12.9118 64.6316 12.2602 64.7153 11.5041H60.0738C59.9193 10.9007 59.8443 10.332 59.8443 9.79607C59.8443 8.61073 60.4532 8.01815 61.6709 8.01815H66.0654Z" fill="white"/>
<path d="M81.3715 5.56048C81.623 5.8633 81.7509 6.27294 81.7509 6.7894C81.7509 7.14461 81.6935 7.53017 81.5833 7.94846C81.4774 8.3625 81.3296 8.77215 81.1421 9.17738C80.5287 8.8593 79.8273 8.69805 79.0331 8.69805C78.4903 8.69805 77.9653 8.82013 77.4536 9.06412C76.9461 9.30369 76.5181 9.63925 76.1652 10.075V18.555C75.9578 18.5835 75.6998 18.6096 75.3887 18.6335C75.0754 18.6618 74.7666 18.6771 74.462 18.6771C73.7496 18.6771 73.2002 18.6096 72.8119 18.4767C72.4238 18.3437 72.1413 18.1062 71.9649 17.762C71.7884 17.4198 71.7002 16.9319 71.7002 16.2977V9.17738C71.7002 8.77215 71.6317 8.48018 71.4971 8.30588C71.3604 8.13158 71.1221 8.04443 70.7824 8.04443C70.5287 8.04443 70.3168 8.07054 70.147 8.12276C70.0633 7.85707 70.0234 7.53679 70.0234 7.16411C70.0234 6.3623 70.2485 5.78717 70.7029 5.43857C71.1795 5.05505 71.8986 4.86328 72.865 4.86328C73.7297 4.86328 74.4224 5.01791 74.9475 5.32514C75.4702 5.63458 75.8254 6.15747 76.0151 6.89401C76.4035 6.25565 76.9087 5.76971 77.5329 5.43857C78.1617 5.10303 78.8146 4.93297 79.4918 4.93297C80.3677 4.93297 80.9943 5.1422 81.3715 5.56048Z" fill="white"/>
<path d="M90.5347 18.852C89.0096 18.852 87.7014 18.5819 86.6072 18.0415C85.5174 17.4967 84.6857 16.6949 84.1099 15.6361C83.5385 14.5728 83.2539 13.2806 83.2539 11.7577C83.2539 10.2717 83.5473 8.99501 84.1363 7.93175C84.7298 6.86848 85.5703 6.06667 86.6601 5.5263C87.7543 4.98153 89.0382 4.70703 90.5158 4.70703C92.0334 4.70703 93.3398 4.98153 94.4351 5.5263C95.5286 6.06667 96.3664 6.86848 96.9484 7.93175C97.532 8.99501 97.8222 10.2892 97.8222 11.8099C97.8222 13.2981 97.5235 14.5728 96.9226 15.6361C96.3235 16.6949 95.4754 17.4967 94.3819 18.0415C93.2917 18.5819 92.0094 18.852 90.5347 18.852ZM90.5604 15.2439C91.4257 15.2439 92.0986 14.9694 92.581 14.416C93.0617 13.8646 93.3055 12.9953 93.3055 11.8099C93.3055 10.6029 93.0531 9.71833 92.5553 9.1605C92.054 8.60284 91.3656 8.32392 90.4901 8.32392C89.625 8.32392 88.95 8.60064 88.4691 9.15186C87.9859 9.70528 87.7455 10.5724 87.7455 11.7577C87.7455 12.9603 87.9948 13.8451 88.4956 14.4071C88.9941 14.965 89.6823 15.2439 90.5604 15.2439Z" fill="white"/>
</svg>
