<svg width="7" height="7" viewBox="0 0 7 7" fill="none" xmlns="http://www.w3.org/2000/svg">
<circle cx="3.49275" cy="3.80061" r="2.92366" fill="#E7FFF8"/>
<g clip-path="url(#clip0_185_15938)">
<path fill-rule="evenodd" clip-rule="evenodd" d="M3.28105 3.91459H3.03053C3.00784 3.91459 2.98941 3.89623 2.98941 3.87348V3.64756H2.88437C2.86778 3.64756 2.85278 3.63755 2.8464 3.62221C2.84003 3.60686 2.84353 3.58911 2.85531 3.57739L3.12673 3.30597C3.14284 3.28994 3.16881 3.28994 3.18491 3.30597L3.45633 3.57739C3.46805 3.58911 3.47161 3.60686 3.46524 3.62221C3.45886 3.63755 3.44386 3.64756 3.42727 3.64756H3.32223V3.87348C3.32216 3.89623 3.3038 3.91459 3.28105 3.91459Z" fill="#5DC7AA"/>
<path fill-rule="evenodd" clip-rule="evenodd" d="M3.15832 3.17113C2.93295 3.17113 2.74951 2.98777 2.74951 2.76233C2.74951 2.53688 2.93295 2.35352 3.15832 2.35352C3.38376 2.35352 3.56713 2.53688 3.56713 2.76233C3.56713 2.98777 3.38376 3.17113 3.15832 3.17113ZM3.11721 2.9879C3.04677 2.97276 2.99455 2.91972 2.99455 2.85675C2.99455 2.834 3.01291 2.81564 3.03566 2.81564C3.05835 2.81564 3.07678 2.834 3.07678 2.85675C3.07678 2.87546 3.09343 2.89272 3.11721 2.90225V2.79912C3.04677 2.78398 2.99455 2.73094 2.99455 2.66797C2.99455 2.605 3.04677 2.55189 3.11721 2.53675V2.51687C3.11721 2.49419 3.13564 2.47576 3.15832 2.47576C3.18107 2.47576 3.19944 2.49419 3.19944 2.51687V2.53675C3.26995 2.55189 3.32216 2.60493 3.32216 2.66797C3.32216 2.69065 3.3038 2.70908 3.28105 2.70908C3.25837 2.70908 3.23993 2.69065 3.23993 2.66797C3.23993 2.64919 3.22328 2.63193 3.19944 2.6224V2.72553C3.26995 2.74067 3.32216 2.79371 3.32216 2.85675C3.32216 2.91972 3.26995 2.97276 3.19944 2.9879V3.00778C3.19944 3.03046 3.18107 3.04889 3.15832 3.04889C3.13564 3.04889 3.11721 3.03046 3.11721 3.00778V2.9879ZM3.19944 2.90225C3.22328 2.89272 3.23993 2.87546 3.23993 2.85675C3.23993 2.83797 3.22328 2.82078 3.19944 2.81118V2.90225ZM3.11721 2.6224C3.09343 2.63193 3.07678 2.64919 3.07678 2.66797C3.07678 2.68668 3.09343 2.70394 3.11721 2.71347V2.6224Z" fill="#5DC7AA"/>
<path fill-rule="evenodd" clip-rule="evenodd" d="M2.13866 5.05123H1.91301C1.84655 5.05123 1.79248 4.9971 1.79248 4.93063V4.27288C1.79248 4.20641 1.84655 4.15234 1.91301 4.15234H2.13866C2.20513 4.15234 2.25919 4.20641 2.25919 4.27288V4.93063C2.25919 4.9971 2.20513 5.05123 2.13866 5.05123Z" fill="#5DC7AA"/>
<path fill-rule="evenodd" clip-rule="evenodd" d="M2.79743 5.00285H2.33936V4.16351C2.40945 4.10081 2.48257 4.00207 2.49648 3.85715C2.49668 3.85523 2.49703 3.85331 2.49744 3.85139C2.50004 3.8407 2.52471 3.74614 2.59227 3.70756C2.62249 3.69029 2.65696 3.6868 2.69191 3.69742C2.7616 3.71866 2.83759 3.77656 2.80346 3.93204C2.78894 3.99824 2.72857 4.12247 2.72596 4.12774C2.72589 4.12795 2.72576 4.12815 2.72562 4.12843C2.72199 4.13583 2.71342 4.16125 2.72288 4.17619C2.72809 4.18434 2.74796 4.20291 2.82183 4.20202H3.00663C3.07886 4.20202 3.13758 4.26075 3.13758 4.33297C3.13758 4.38957 3.10147 4.43788 3.05111 4.45611C3.05933 4.47324 3.06399 4.49242 3.06399 4.51264C3.06399 4.57013 3.02671 4.61906 2.97505 4.63667C2.98306 4.65352 2.98752 4.67243 2.98752 4.69231C2.98752 4.74432 2.95702 4.78934 2.91303 4.81044C2.92283 4.8288 2.92838 4.8497 2.92838 4.87197C2.92838 4.94413 2.86966 5.00285 2.79743 5.00285Z" fill="#5DC7AA"/>
<path fill-rule="evenodd" clip-rule="evenodd" d="M4.77155 3.46495C4.76881 3.46495 4.76607 3.46467 4.76326 3.46406C4.74421 3.46015 4.73051 3.44343 4.73044 3.42397C4.73037 3.41465 4.72537 3.21511 4.49472 3.10931C4.45196 3.16927 4.34129 3.29234 4.15423 3.29241C4.07371 3.29241 3.98861 3.26897 3.90076 3.22265C3.87547 3.25061 3.83374 3.30687 3.82902 3.37779C3.82778 3.39608 3.81463 3.41136 3.79667 3.41527C3.77865 3.41911 3.76035 3.41061 3.75172 3.39437C3.74398 3.37984 3.56431 3.0338 3.81956 2.67645C3.82127 2.67405 3.82326 2.67186 3.82538 2.66987C3.83093 2.66487 3.96318 2.54688 4.13943 2.54688C4.22857 2.54688 4.31251 2.57689 4.38926 2.63616C4.45086 2.64301 4.70659 2.68262 4.82678 2.87976C4.91374 3.02243 4.90791 3.211 4.80931 3.44007C4.80273 3.45536 4.78772 3.46495 4.77155 3.46495Z" fill="#5DC7AA"/>
<path fill-rule="evenodd" clip-rule="evenodd" d="M4.29674 4.26113C4.29509 4.26113 4.29345 4.26107 4.2918 4.26107C4.18456 4.25949 4.0824 4.20659 3.99626 4.10812C3.91314 4.01315 3.84935 3.87864 3.81077 3.71788C3.71504 3.70466 3.64597 3.64463 3.63103 3.55884C3.61747 3.48072 3.65557 3.38178 3.7713 3.33682C3.79247 3.32853 3.81632 3.33902 3.82454 3.36019C3.83277 3.38136 3.82228 3.40521 3.80111 3.41343C3.72375 3.44352 3.70483 3.50299 3.7121 3.54479C3.71963 3.58844 3.75862 3.63593 3.84524 3.63833C3.86422 3.63881 3.88032 3.65217 3.88436 3.67067C3.95049 3.97669 4.1109 4.17617 4.29304 4.17884H4.29674C4.46736 4.17891 4.61674 4.00253 4.68732 3.7174C4.6915 3.70034 4.70616 3.68787 4.72371 3.68636C4.80347 3.67951 4.83834 3.63243 4.84437 3.59063C4.8502 3.54973 4.83033 3.49155 4.75488 3.46222C4.73371 3.454 4.72323 3.43015 4.73145 3.40898C4.73967 3.38781 4.76352 3.37732 4.78462 3.38554C4.89734 3.4294 4.93674 3.52602 4.92571 3.60235C4.91386 3.68533 4.85006 3.74652 4.76016 3.76414C4.71891 3.91687 4.65511 4.04234 4.5748 4.12827C4.4934 4.21522 4.3974 4.26113 4.29674 4.26113Z" fill="#5DC7AA"/>
<path fill-rule="evenodd" clip-rule="evenodd" d="M3.32188 5.09602C3.31091 5.09602 3.3005 5.09163 3.29275 5.08396C3.28508 5.07621 3.28076 5.0658 3.28076 5.0549C3.28076 4.84193 3.324 4.68954 3.41294 4.58908C3.4925 4.49918 3.59761 4.46252 3.69039 4.43018C3.72986 4.4164 3.76728 4.40338 3.8012 4.38735C3.83751 4.42312 3.87253 4.45731 3.87904 4.46279C3.99361 4.55893 4.13703 4.61135 4.28826 4.61135C4.43181 4.61135 4.56838 4.56414 4.67987 4.47698C4.69145 4.468 4.73606 4.42517 4.77512 4.38728C4.80903 4.40331 4.84652 4.4164 4.88605 4.43018C4.97883 4.46252 5.08402 4.49918 5.16357 4.58908C5.25252 4.68954 5.29575 4.84193 5.29575 5.0549C5.29575 5.07758 5.27732 5.09602 5.25464 5.09602H4.88208V4.85872C4.88208 4.83604 4.86365 4.81761 4.84097 4.81761C4.81822 4.81761 4.79985 4.83604 4.79985 4.85872V5.09602H3.77666V4.85872C3.77666 4.83604 3.75823 4.81761 3.73555 4.81761C3.7128 4.81761 3.69444 4.83604 3.69444 4.85872V5.09602H3.32188ZM3.87349 4.34308C3.9135 4.31019 3.94413 4.26531 3.96113 4.19727C4.04843 4.28326 4.1582 4.3411 4.28415 4.34295H4.29025C4.41674 4.34295 4.52788 4.28552 4.61539 4.19747C4.63245 4.26538 4.66301 4.31026 4.70303 4.34308C4.67274 4.37262 4.64341 4.40085 4.63642 4.40654C4.53803 4.48595 4.41633 4.52912 4.28826 4.52912C4.15806 4.52912 4.03452 4.48458 3.9353 4.40263C3.92995 4.39824 3.90364 4.37262 3.87349 4.34308Z" fill="#5DC7AA"/>
</g>
<defs>
<clipPath id="clip0_185_15938">
<rect width="3.50839" height="3.50839" fill="white" transform="translate(1.78857 1.97266)"/>
</clipPath>
</defs>
</svg>
