<svg width="7" height="7" viewBox="0 0 7 7" fill="none" xmlns="http://www.w3.org/2000/svg">
<circle cx="3.49275" cy="3.54621" r="2.92366" fill="#FFF2D9"/>
<path d="M1.86337 4.1656C1.87287 4.1656 1.88164 4.16414 1.89042 4.16049C1.92842 4.14514 1.94596 4.10274 1.93135 4.06547C1.85533 3.87689 1.81659 3.67662 1.81659 3.4705C1.81659 2.5839 2.53801 1.86249 3.4246 1.86249C3.81784 1.86249 4.19718 2.00794 4.48955 2.26596H4.37479C4.33459 2.26596 4.3017 2.29885 4.3017 2.33905C4.3017 2.37998 4.33459 2.41214 4.37479 2.41214H4.65693C4.66058 2.4136 4.66423 2.4136 4.66862 2.4136C4.70882 2.4136 4.74171 2.37998 4.74171 2.33978C4.74171 2.33539 4.74098 2.33101 4.74025 2.32662V2.04668C4.74025 2.00648 4.70736 1.97359 4.66716 1.97359C4.62696 1.97359 4.59407 2.00648 4.59407 2.04668V2.16363C4.27393 1.87711 3.85731 1.71631 3.4246 1.71631C2.4576 1.71631 1.67041 2.5035 1.67041 3.4705C1.67041 3.69562 1.7128 3.91344 1.7954 4.11955C1.80709 4.14806 1.83413 4.1656 1.86337 4.1656Z" fill="#F4BD50"/>
<path d="M4.95774 2.7814C4.92047 2.79675 4.90219 2.83915 4.91681 2.87642C4.99283 3.06573 5.03083 3.266 5.03083 3.47066C5.03083 4.35726 4.30942 5.07867 3.42282 5.07867C3.03032 5.07867 2.65098 4.93395 2.35861 4.6752H2.47263C2.51284 4.6752 2.54573 4.64231 2.54573 4.60211C2.54573 4.56191 2.51284 4.52902 2.47263 4.52902H2.18027C2.15542 4.52902 2.13276 4.54218 2.1196 4.56118C2.11522 4.56703 2.11229 4.57434 2.1101 4.58165C2.10864 4.58603 2.10864 4.59042 2.10791 4.59553C2.10791 4.59773 2.10718 4.59992 2.10718 4.60211V4.89448C2.10718 4.93468 2.14007 4.96757 2.18027 4.96757C2.22047 4.96757 2.25336 4.93468 2.25336 4.89448V4.77753C2.5735 5.06405 2.99012 5.22485 3.42282 5.22485C4.38982 5.22485 5.17702 4.43766 5.17702 3.47066C5.17702 3.247 5.13535 3.02918 5.05276 2.82234C5.03741 2.78506 4.99502 2.76679 4.95774 2.7814Z" fill="#F4BD50"/>
<path d="M3.3562 3.25195H3.50238V3.98287H3.3562V3.25195Z" fill="#F4BD50"/>
<path d="M2.76196 3.68945H2.90815V3.98182H2.76196V3.68945Z" fill="#F4BD50"/>
<path d="M3.93555 2.95996H4.08173V3.98324H3.93555V2.95996Z" fill="#F4BD50"/>
<path d="M3.42282 2.15527C2.69703 2.15527 2.10718 2.74512 2.10718 3.47092C2.10718 4.19672 2.69703 4.78656 3.42282 4.78656C4.14862 4.78656 4.73847 4.19672 4.73847 3.47092C4.73847 2.74512 4.14862 2.15527 3.42282 2.15527ZM3.05737 4.05565C3.05737 4.09585 3.02447 4.12874 2.98427 4.12874H2.69191C2.65171 4.12874 2.61882 4.09585 2.61882 4.05565V3.6171C2.61882 3.5769 2.65171 3.54401 2.69191 3.54401H2.98427C3.02447 3.54401 3.05737 3.5769 3.05737 3.6171V4.05565ZM3.6421 4.05565C3.6421 4.09585 3.60921 4.12874 3.56901 4.12874H3.27664C3.23644 4.12874 3.20355 4.09585 3.20355 4.05565V3.17855C3.20355 3.13835 3.23644 3.10546 3.27664 3.10546H3.56901C3.60921 3.10546 3.6421 3.13835 3.6421 3.17855V4.05565ZM4.22683 4.05565C4.22683 4.09585 4.19394 4.12874 4.15374 4.12874H3.86137C3.82117 4.12874 3.78828 4.09585 3.78828 4.05565V2.88619C3.78828 2.84599 3.82117 2.8131 3.86137 2.8131H4.15374C4.19394 2.8131 4.22683 2.84599 4.22683 2.88619V4.05565Z" fill="#F4BD50"/>
</svg>
