<svg width="154" height="29" viewBox="0 0 154 29" fill="none" xmlns="http://www.w3.org/2000/svg">
<path d="M7.3933 22.9926C6.00703 22.9926 4.75626 22.6523 3.64307 21.9696C2.52988 21.287 1.6585 20.3583 1.02686 19.1795C0.397306 18.0028 0.0804443 16.6806 0.0804443 15.2127C0.0804443 13.7244 0.395221 12.3919 1.02686 11.2152C1.65642 10.0385 2.52779 9.10775 3.64307 8.42714C4.75626 7.74448 6.00703 7.40417 7.3933 7.40417C8.48565 7.40417 9.46334 7.62148 10.3243 8.05403C11.1852 8.48864 11.8732 9.09135 12.3881 9.86626C12.903 10.6412 13.1802 11.5145 13.224 12.4841V17.8757C13.1823 18.8679 12.903 19.7454 12.3881 20.51C11.8732 21.2747 11.1852 21.8794 10.3243 22.3222C9.46125 22.7712 8.48565 22.9926 7.3933 22.9926ZM8.14794 19.2431C9.30282 19.2431 10.2388 18.8659 10.9518 18.1115C11.6668 17.3571 12.0233 16.3813 12.0233 15.182C12.0233 14.3968 11.8607 13.6998 11.5355 13.091C11.2103 12.4821 10.7579 12.0065 10.1804 11.6662C9.60301 11.3259 8.9255 11.1557 8.14794 11.1557C7.39122 11.1557 6.72414 11.3259 6.1467 11.6662C5.56926 12.0065 5.1169 12.4821 4.79169 13.091C4.46649 13.6998 4.30389 14.3989 4.30389 15.182C4.30389 15.9876 4.46649 16.6949 4.79169 17.3058C5.1169 17.9147 5.56926 18.3903 6.1467 18.7306C6.72623 19.0729 7.3933 19.2431 8.14794 19.2431ZM11.8044 28.9438V18.9028L12.4652 15.2763L11.8044 11.6498V7.71373H15.9007V28.9418H11.8044V28.9438Z" fill="#277289"/>
<path d="M26.0451 22.9926C24.7006 22.9926 23.5082 22.7138 22.4679 22.1562C21.4277 21.5986 20.6126 20.8237 20.0247 19.8315C19.4369 18.8393 19.1429 17.6933 19.1429 16.3915V7.71375H23.3018V16.2993C23.3018 16.9184 23.406 17.4514 23.6165 17.8962C23.8271 18.3411 24.1419 18.6773 24.563 18.9028C24.9841 19.1304 25.476 19.2431 26.0451 19.2431C26.9061 19.2431 27.5794 18.9848 28.0631 18.4682C28.5467 17.9516 28.7885 17.2279 28.7885 16.2993V7.71375H32.9161V16.3915C32.9161 17.7138 32.6263 18.87 32.0489 19.8622C31.4714 20.8544 30.6626 21.6232 29.6224 22.1706C28.5821 22.7179 27.3897 22.9926 26.0451 22.9926Z" fill="#277289"/>
<path d="M38.2782 5.29681C37.6049 5.29681 37.0483 5.0754 36.6085 4.63055C36.1665 4.18569 35.9476 3.63423 35.9476 2.97207C35.9476 2.33246 36.1686 1.78511 36.6085 1.33C37.0504 0.874893 37.607 0.647339 38.2782 0.647339C38.9724 0.647339 39.5332 0.874893 39.9647 1.33C40.3941 1.78511 40.6109 2.33246 40.6109 2.97207C40.6109 3.63423 40.3941 4.18569 39.9647 4.63055C39.5332 5.0754 38.9703 5.29681 38.2782 5.29681ZM36.1978 22.6831V7.71379H40.3587V22.6831H36.1978Z" fill="#277289"/>
<path d="M51.197 22.9921C49.6418 22.9921 48.2452 22.6518 47.0048 21.9691C45.7644 21.2865 44.7888 20.3578 44.0738 19.179C43.3588 18.0023 43.0023 16.6801 43.0023 15.2122C43.0023 13.7239 43.3588 12.3914 44.0738 11.2147C44.7888 10.038 45.7707 9.10315 47.0194 8.41024C48.2702 7.71733 49.6606 7.37292 51.1949 7.37292C52.3935 7.37292 53.4963 7.59023 54.5032 8.02483C55.5122 8.45944 56.3835 9.07855 57.1194 9.88421L54.4719 12.5185C54.0717 12.0839 53.5943 11.7538 53.0377 11.5263C52.4811 11.2987 51.8661 11.186 51.1949 11.186C50.4382 11.186 49.7607 11.3561 49.1624 11.6964C48.5641 12.0367 48.0909 12.5021 47.7448 13.0905C47.3988 13.6788 47.2258 14.3758 47.2258 15.1815C47.2258 15.9666 47.3988 16.6637 47.7448 17.2725C48.0909 17.8814 48.5641 18.357 49.1624 18.6973C49.7607 19.0376 50.4382 19.2077 51.1949 19.2077C51.8891 19.2077 52.5124 19.0888 53.0711 18.851C53.6276 18.6132 54.105 18.2668 54.5053 17.8137L57.184 20.448C56.4065 21.2742 55.5142 21.9056 54.5053 22.3381C53.4963 22.7748 52.3936 22.9921 51.197 22.9921Z" fill="#277289"/>
<path d="M59.5179 22.6831V0.276245H63.6455V22.6831H59.5179ZM69.226 22.6831L63.3328 14.9668L69.1948 7.7158H73.954L67.083 15.8975L67.2415 13.913L74.2688 22.6831H69.226Z" fill="#277289"/>
<path d="M75.6508 28.9439V7.71383H79.7783V11.6499L79.0841 15.2764L79.747 18.9029V28.9439H75.6508ZM84.0956 22.9927C83.0032 22.9927 82.0151 22.7713 81.1333 22.3264C80.2515 21.8816 79.5469 21.2789 79.0216 20.5142C78.4963 19.7496 78.2128 18.8721 78.1711 17.8799V12.5806C78.2128 11.5884 78.5025 10.7048 79.0383 9.92991C79.574 9.155 80.2786 8.53999 81.15 8.08488C82.0214 7.62978 83.0032 7.40222 84.0977 7.40222C85.5048 7.40222 86.766 7.74253 87.8792 8.42519C88.9924 9.10785 89.87 10.0365 90.51 11.2132C91.1499 12.392 91.471 13.7245 91.471 15.2108C91.471 16.6786 91.1499 18.0009 90.51 19.1776C89.8679 20.3564 88.9924 21.285 87.8792 21.9677C86.7639 22.6524 85.5027 22.9927 84.0956 22.9927ZM83.3722 19.2432C84.1289 19.2432 84.8002 19.073 85.3901 18.7327C85.978 18.3924 86.4345 17.9168 86.7618 17.308C87.087 16.6991 87.2496 15.9898 87.2496 15.1841C87.2496 14.399 87.087 13.702 86.7618 13.0931C86.4366 12.4842 85.978 12.0086 85.3901 11.6683C84.8023 11.328 84.1289 11.1579 83.3722 11.1579C82.6363 11.1579 81.9755 11.328 81.3876 11.6683C80.7998 12.0086 80.3432 12.4842 80.016 13.0931C79.6908 13.702 79.5282 14.401 79.5282 15.1841C79.5282 15.9898 79.6908 16.6971 80.016 17.308C80.3412 17.9168 80.7935 18.3924 81.371 18.7327C81.9484 19.073 82.6155 19.2432 83.3722 19.2432Z" fill="#277289"/>
<path d="M94.182 22.6829V7.71363H98.3096V22.6829H94.182ZM98.3096 14.409L96.7023 13.3553C96.892 11.5164 97.4382 10.065 98.3408 9.00105C99.2435 7.93709 100.546 7.40613 102.25 7.40613C102.985 7.40613 103.646 7.52503 104.234 7.76283C104.822 8.00064 105.358 8.38809 105.841 8.9252L103.256 11.8383C103.025 11.5902 102.746 11.4037 102.42 11.2807C102.095 11.1556 101.722 11.0941 101.301 11.0941C100.419 11.0941 99.6979 11.3688 99.1413 11.9162C98.5889 12.4615 98.3096 13.2918 98.3096 14.409Z" fill="#277289"/>
<path d="M109.374 5.29681C108.701 5.29681 108.144 5.0754 107.704 4.63055C107.262 4.18569 107.041 3.63423 107.041 2.97207C107.041 2.33246 107.262 1.78511 107.704 1.33C108.146 0.874893 108.703 0.647339 109.374 0.647339C110.068 0.647339 110.629 0.874893 111.061 1.33C111.49 1.78511 111.707 2.33246 111.707 2.97207C111.707 3.63423 111.492 4.18569 111.061 4.63055C110.631 5.0754 110.068 5.29681 109.374 5.29681ZM107.296 22.6831V7.71379H111.457V22.6831H107.296Z" fill="#277289"/>
<path d="M120.34 23.0232C119.479 23.0232 118.632 22.9105 117.803 22.6829C116.973 22.4554 116.212 22.1397 115.518 21.7379C114.824 21.334 114.226 20.844 113.721 20.2659L116.179 17.8182C116.704 18.3963 117.313 18.8309 118.007 19.12C118.701 19.409 119.466 19.5546 120.308 19.5546C120.98 19.5546 121.49 19.4623 121.837 19.2758C122.183 19.0892 122.356 18.8104 122.356 18.4394C122.356 18.0253 122.172 17.7055 121.803 17.4779C121.436 17.2503 120.957 17.0597 120.369 16.9039C119.781 16.7481 119.166 16.5738 118.526 16.377C117.884 16.1802 117.271 15.9219 116.683 15.6021C116.095 15.2823 115.616 14.8375 115.249 14.2696C114.882 13.7017 114.697 12.9637 114.697 12.0535C114.697 11.1044 114.932 10.2761 115.405 9.57504C115.879 8.87188 116.556 8.32452 117.438 7.93296C118.32 7.54141 119.36 7.3446 120.559 7.3446C121.82 7.3446 122.958 7.56191 123.977 7.99651C124.997 8.43112 125.841 9.08098 126.514 9.94814L124.027 12.3938C123.565 11.8362 123.046 11.4324 122.468 11.1843C121.891 10.9363 121.265 10.8133 120.594 10.8133C119.985 10.8133 119.516 10.9055 119.191 11.0921C118.866 11.2786 118.703 11.5369 118.703 11.867C118.703 12.238 118.887 12.5291 119.254 12.7341C119.621 12.9412 120.1 13.1216 120.688 13.2774C121.276 13.4332 121.891 13.6074 122.531 13.8042C123.171 14.0011 123.779 14.2737 124.359 14.6263C124.936 14.9769 125.41 15.4422 125.776 16.0203C126.143 16.5984 126.329 17.3426 126.329 18.2508C126.329 19.7186 125.793 20.881 124.722 21.7379C123.648 22.5948 122.189 23.0232 120.34 23.0232Z" fill="#277289"/>
<path d="M129.104 22.6829V7.71363H133.231V22.6829H129.104ZM139.031 22.6829V13.8494C139.031 12.9822 138.752 12.3057 138.195 11.8198C137.638 11.334 136.95 11.0921 136.131 11.0921C135.585 11.0921 135.091 11.2007 134.649 11.418C134.207 11.6353 133.861 11.951 133.609 12.3631C133.357 12.7772 133.231 13.2733 133.231 13.8514L131.624 13.0765C131.624 11.9203 131.881 10.9178 132.395 10.0712C132.91 9.2245 133.609 8.56849 134.491 8.10314C135.372 7.63778 136.371 7.40613 137.484 7.40613C138.535 7.40613 139.489 7.63778 140.353 8.10314C141.213 8.56849 141.897 9.21835 142.402 10.0548C142.906 10.8912 143.158 11.8998 143.158 13.0765V22.6829H139.031ZM148.958 22.6829V13.8494C148.958 12.9822 148.678 12.3057 148.122 11.8198C147.565 11.334 146.877 11.0921 146.058 11.0921C145.533 11.0921 145.045 11.2007 144.593 11.418C144.14 11.6353 143.79 11.951 143.538 12.3631C143.286 12.7772 143.161 13.2733 143.161 13.8514L140.797 13.2938C140.88 12.0945 141.207 11.0572 141.774 10.1798C142.341 9.3024 143.088 8.61974 144.011 8.13389C144.935 7.64803 145.964 7.40613 147.098 7.40613C148.232 7.40613 149.252 7.63778 150.154 8.10314C151.057 8.56849 151.772 9.23475 152.297 10.1019C152.823 10.9691 153.085 12.0023 153.085 13.2016V22.685H148.958V22.6829Z" fill="#277289"/>
</svg>
