<svg width="7" height="6" viewBox="0 0 7 6" fill="none" xmlns="http://www.w3.org/2000/svg">
<circle cx="3.49275" cy="3.055" r="2.92366" fill="#FDF7FF"/>
<path d="M3.22381 1.89651C3.64836 1.48419 4.34256 1.48419 4.76687 1.89651C5.04592 2.16768 5.14155 2.55261 5.05346 2.90142C5.0464 2.90477 5.03933 2.90805 5.03251 2.91179L4.71997 3.07699C4.8026 2.94535 4.8438 2.79584 4.8438 2.64609C4.8438 2.43463 4.76117 2.22316 4.59615 2.06257H4.59591C4.43089 1.90198 4.21327 1.82191 3.99542 1.82191V1.82168C3.77756 1.82168 3.55995 1.90198 3.39469 2.06257C3.22943 2.22316 3.1468 2.43463 3.1468 2.64609C3.1468 2.69346 3.15089 2.74075 3.15908 2.78741C3.07734 2.77836 2.99607 2.77992 2.91577 2.79162C2.8712 2.47388 2.97383 2.13966 3.22381 1.89651ZM4.22604 2.97773C4.21376 2.9899 4.20011 3.00099 4.18549 3.01027C4.17136 3.01932 4.1557 3.02728 4.13932 3.03392C4.11796 3.04258 4.09515 3.04898 4.07122 3.05295L4.21528 3.09782C4.28996 3.12123 4.35348 3.16595 4.39941 3.22416C4.43627 3.19981 4.47112 3.17195 4.50364 3.14035C4.64337 3.00457 4.71331 2.82533 4.71331 2.64617C4.71331 2.46724 4.64345 2.28808 4.50364 2.15223C4.36368 2.01621 4.17947 1.94825 3.99534 1.94825V1.94848C3.81097 1.94848 3.6266 2.01637 3.48679 2.15223C3.34707 2.288 3.27713 2.46724 3.27713 2.64617C3.27713 2.70212 3.28395 2.75807 3.2976 2.81269C3.3176 2.81753 3.33767 2.82331 3.35767 2.82947L3.78222 2.96244C3.76632 2.94675 3.75146 2.92904 3.73829 2.90938C3.72529 2.89034 3.71396 2.86911 3.70368 2.8457C3.69003 2.8134 3.70577 2.77649 3.73894 2.76299C3.77218 2.74949 3.81016 2.76502 3.82406 2.79709C3.83064 2.81277 3.83859 2.82713 3.84726 2.84C3.87826 2.88604 3.9201 2.91281 3.96362 2.92405C4.0073 2.93552 4.05219 2.932 4.08905 2.91694C4.09772 2.91343 4.10615 2.90922 4.11386 2.90415C4.12093 2.8997 4.12727 2.89486 4.13249 2.88955C4.14799 2.8741 4.15779 2.85506 4.16052 2.83517C4.16325 2.81636 4.15939 2.7967 4.14735 2.77875C4.14301 2.77258 4.13827 2.76681 4.13257 2.7615C4.11121 2.74114 4.06359 2.73029 4.01349 2.71882C3.93608 2.70087 3.85369 2.68207 3.79065 2.61925C3.76793 2.59646 3.7513 2.56923 3.74127 2.54005C3.72761 2.50134 3.72513 2.45913 3.7342 2.41863C3.74351 2.37774 3.76471 2.33857 3.7982 2.30673C3.82229 2.28394 3.8528 2.26514 3.88974 2.25297C3.89841 2.25008 3.90749 2.24766 3.91704 2.24524C3.92138 2.24438 3.92572 2.24329 3.93005 2.24235V2.1477C3.93005 2.11274 3.9592 2.08418 3.99542 2.08418C4.03139 2.08418 4.06054 2.11274 4.06054 2.1477V2.2397C4.08078 2.24306 4.10061 2.24789 4.11972 2.25476C4.1887 2.2795 4.24676 2.32772 4.27318 2.40318C4.27527 2.40934 4.27727 2.41621 4.27912 2.42331C4.28779 2.45718 4.26635 2.49143 4.23158 2.49986C4.19649 2.50829 4.16124 2.48745 4.15281 2.45367C4.15192 2.45039 4.15096 2.44727 4.1496 2.44368C4.13755 2.40872 4.10904 2.38593 4.07492 2.37376C4.03533 2.35964 3.98907 2.35831 3.94812 2.36822C3.94266 2.36955 3.9372 2.37111 3.9315 2.3729C3.91399 2.37891 3.89986 2.38726 3.88894 2.39748C3.87481 2.41098 3.86597 2.42776 3.86188 2.44547C3.85778 2.46381 3.85891 2.48262 3.86485 2.49947C3.86894 2.51141 3.87553 2.52249 3.8842 2.53107C3.92042 2.56736 3.98394 2.58172 4.04328 2.59545C4.11153 2.61113 4.17601 2.62573 4.22355 2.67091C4.23656 2.68331 4.24764 2.69635 4.25656 2.70938C4.28659 2.75425 4.29639 2.80427 4.2898 2.85202C4.28314 2.89853 4.26065 2.94301 4.22604 2.97773ZM5.0949 3.02307L4.46598 3.35572C4.48397 3.42166 4.48325 3.49282 4.46028 3.56235C4.39628 3.75564 4.18148 3.8627 3.98249 3.80035C3.75805 3.7302 3.53361 3.65989 3.30917 3.58974C3.27937 3.58022 3.26275 3.54885 3.27231 3.51982L3.27729 3.50476C3.28684 3.47558 3.3192 3.45966 3.34924 3.46895C3.57368 3.53925 3.79812 3.60941 4.02256 3.67971C4.15297 3.72045 4.29414 3.65006 4.33597 3.52333C4.34762 3.48861 4.35051 3.45318 4.34601 3.41916C4.33421 3.32872 4.26997 3.24819 4.17529 3.21854C3.88942 3.12919 3.60371 3.03961 3.31784 2.95026C3.08906 2.87863 2.86486 2.89892 2.65383 3.01066L2.09999 3.30352L2.62813 4.19473C2.77516 4.12286 2.93039 4.11154 3.08882 4.16109L3.40223 4.2591C3.56798 4.31107 3.73026 4.29625 3.88324 4.21556L5.33299 3.44866C5.45344 3.38498 5.49849 3.23719 5.43289 3.12022C5.36736 3.00317 5.21527 2.95963 5.0949 3.02307ZM1.88471 3.19474C1.86696 3.16446 1.82689 3.15401 1.79589 3.17149L1.4722 3.35268C1.4412 3.36992 1.43052 3.40886 1.44827 3.43898L2.1762 4.66706C2.19419 4.69733 2.23402 4.70779 2.26501 4.69031L2.58871 4.50912C2.6197 4.49187 2.63062 4.45294 2.61264 4.42282L1.88471 3.19474ZM2.84157 2.02527C2.87755 2.02527 2.9067 1.99671 2.9067 1.96175V1.47295C2.9067 1.43799 2.87755 1.40967 2.84157 1.40967C2.80536 1.40967 2.77621 1.43799 2.77621 1.47295V1.96183C2.77629 1.99671 2.80544 2.02527 2.84157 2.02527ZM2.50495 2.43517C2.54093 2.43517 2.57008 2.40661 2.57008 2.37165V1.88278C2.57008 1.84782 2.54093 1.81949 2.50495 1.81949C2.46874 1.81949 2.43959 1.84782 2.43959 1.88278V2.37165C2.43959 2.40661 2.46874 2.43517 2.50495 2.43517ZM5.14926 2.02527C5.18524 2.02527 5.21439 1.99671 5.21439 1.96175V1.47295C5.21439 1.43799 5.18524 1.40967 5.14926 1.40967C5.11305 1.40967 5.0839 1.43799 5.0839 1.47295V1.96183C5.08398 1.99671 5.11305 2.02527 5.14926 2.02527ZM5.48596 1.81957C5.44975 1.81957 5.4206 1.8479 5.4206 1.88286V2.37173C5.4206 2.40669 5.44975 2.43525 5.48596 2.43525C5.52194 2.43525 5.55109 2.40669 5.55109 2.37173V1.88286C5.55101 1.8479 5.52186 1.81957 5.48596 1.81957Z" fill="#995AB3"/>
</svg>
