<svg width="32" height="32" viewBox="0 0 32 32" fill="none" xmlns="http://www.w3.org/2000/svg">
<path fill-rule="evenodd" clip-rule="evenodd" d="M23.5288 0.827637H0.713135V23.6433H23.5288V0.827637ZM19.8783 4.47814H4.36363V19.9928H19.8783V4.47814Z" fill="#1E1515"/>
<path fill-rule="evenodd" clip-rule="evenodd" d="M31.2868 8.35693H8.47119V31.1726H31.2868V8.35693ZM27.6363 12.0074H12.1217V27.5221H27.6363V12.0074Z" fill="#1E1515"/>
<path d="M12.1221 12.0078H19.8794V19.9933H12.1221V12.0078Z" fill="#1E1515"/>
<path d="M13.0349 12.9194H18.967V14.5165H13.0349V12.9194Z" fill="#F8F5F4"/>
<path d="M13.4912 17.4834H19.4233V19.0805H13.4912V17.4834Z" fill="#F8F5F4"/>
<path d="M12.1221 17.4834H13.7192V23.6436H12.1221V17.4834Z" fill="#F8F5F4"/>
<path d="M8.47119 14.5171V12.92H13.0343V14.5171H8.47119Z" fill="#F8F5F4"/>
<path d="M18.9675 19.0806V17.4835H23.5307V19.0806H18.9675Z" fill="#F8F5F4"/>
<path d="M18.28 8.35693H19.8771V14.5172H18.28V8.35693Z" fill="#F8F5F4"/>
</svg>
