<svg width="43" height="42" viewBox="0 0 43 42" fill="none" xmlns="http://www.w3.org/2000/svg">
<path d="M28.3009 40.8663L7.36714 36.674C2.94774 35.7884 0.095975 31.5489 0.996533 27.2049L5.2575 6.61853C6.15806 2.27247 10.4691 -0.531973 14.8864 0.35364L35.8202 4.54595C40.2396 5.43156 43.0914 9.67102 42.1908 14.015L37.9277 34.6014C37.0293 38.9454 32.7183 41.7519 28.3009 40.8663Z" fill="#898989"/>
<path d="M32.2732 39.1417H10.91C6.40094 39.1417 2.74451 35.548 2.74451 31.1117V10.105C2.74451 5.67082 6.40094 2.07507 10.91 2.07507H32.2732C36.7823 2.07507 40.4387 5.66877 40.4387 10.105V31.1137C40.4366 35.548 36.7823 39.1417 32.2732 39.1417Z" fill="#277289"/>
<path d="M21.3128 17.7577L21.1586 11.2284" stroke="white" stroke-width="0.889219" stroke-miterlimit="10"/>
<path d="M26.1898 25.8514L32.2248 29.0884" stroke="white" stroke-width="0.889219" stroke-miterlimit="10"/>
<path d="M10.8929 29.652L17.0822 25.9374" stroke="white" stroke-width="0.889219" stroke-miterlimit="10"/>
<path d="M11.7044 31.4974L31.6 31.0218C33.3991 30.9788 34.4747 29.0374 33.5367 27.5286L23.1698 10.8209C22.2338 9.31203 19.9845 9.36533 19.1236 10.9172L9.59475 28.1005C8.73588 29.6524 9.90535 31.5405 11.7044 31.4974Z" stroke="white" stroke-width="2.88999" stroke-miterlimit="10"/>
<path d="M15.7445 26.7436L27.335 26.4668L21.2959 16.7333L15.7445 26.7436Z" fill="white"/>
</svg>
