<svg width="6" height="7" viewBox="0 0 6 7" fill="none" xmlns="http://www.w3.org/2000/svg">
<g clip-path="url(#clip0_237_718)">
<g clip-path="url(#clip1_237_718)">
<rect x="1.12427" y="1.53857" width="3.89821" height="3.89821" rx="0.487276" fill="white"/>
<path fill-rule="evenodd" clip-rule="evenodd" d="M5.4614 3.42365C5.2184 3.91678 4.6528 4.35673 3.68461 4.62109C2.91246 4.83192 2.32703 4.842 1.90269 4.71198C1.47415 4.58067 1.21448 4.3074 1.10082 3.96958C0.988525 3.63584 1.02153 3.24841 1.15614 2.88555C1.291 2.52203 1.53043 2.17566 1.84228 1.92138C3.24268 0.779501 4.69819 1.15218 5.30892 1.9828C5.61402 2.39777 5.70576 2.92774 5.4614 3.42365ZM5.1617 2.09105C4.62067 1.35522 3.28773 0.978539 1.95775 2.063C1.67232 2.29573 1.45154 2.61467 1.32746 2.94911C1.20314 3.28423 1.17848 3.62741 1.27401 3.91131C1.36816 4.19114 1.58179 4.42253 1.95622 4.53727C2.33486 4.65329 2.88208 4.6508 3.63648 4.44481C4.57646 4.18815 5.08618 3.7717 5.29749 3.34288C5.50743 2.91683 5.43247 2.45931 5.1617 2.09105Z" fill="#7C7C7C"/>
<path fill-rule="evenodd" clip-rule="evenodd" d="M1.24609 4.7058C1.24609 4.63852 1.30063 4.58398 1.36791 4.58398L4.77885 4.58398C4.84612 4.58398 4.90066 4.63852 4.90066 4.7058C4.90066 4.77308 4.84612 4.82762 4.77885 4.82762L1.36791 4.82762C1.30063 4.82762 1.24609 4.77308 1.24609 4.7058Z" fill="#7C7C7C"/>
<path fill-rule="evenodd" clip-rule="evenodd" d="M3.56897 3.24551C3.55539 3.37287 3.45016 3.47946 3.30218 3.56919C3.15431 3.65885 3.02504 3.70511 2.91424 3.70349C2.79315 3.70173 2.7021 3.64218 2.65438 3.54872C2.61134 3.46444 2.60975 3.36574 2.62589 3.28203C2.64231 3.1969 2.68024 3.1099 2.73718 3.04316L2.7403 3.0395L2.7437 3.0361C2.83259 2.9472 2.9565 2.91046 3.0682 2.90325C3.18069 2.89599 3.29978 2.91719 3.3935 2.9654C3.48349 3.01168 3.58403 3.10436 3.56897 3.24551ZM2.91935 3.20512C2.95282 3.17388 3.01023 3.15113 3.08389 3.14638C3.15929 3.14151 3.23327 3.15696 3.28206 3.18205C3.30617 3.19445 3.31858 3.20632 3.32381 3.21349C3.32769 3.21881 3.32671 3.21966 3.32671 3.21967C3.32595 3.22678 3.31055 3.27919 3.17586 3.36086C3.04419 3.44069 2.96192 3.46052 2.91779 3.45988C2.88394 3.45939 2.87668 3.44834 2.87136 3.43792C2.86135 3.41831 2.85516 3.37984 2.86512 3.32818C2.87441 3.28001 2.8951 3.23519 2.91935 3.20512Z" fill="#7C7C7C"/>
<path fill-rule="evenodd" clip-rule="evenodd" d="M4.22375 3.46954C4.07274 3.68958 3.77891 3.88152 3.33172 4.01254C2.97434 4.11725 2.69319 4.13324 2.48307 4.07505C2.26601 4.01493 2.12942 3.87607 2.07648 3.69562C2.0257 3.52255 2.05615 3.32704 2.13372 3.14883C2.21197 2.96909 2.34266 2.79571 2.51021 2.66168L2.52029 2.65362L2.53183 2.64785C3.28934 2.26908 3.97995 2.40793 4.24105 2.79331C4.37633 2.99299 4.37958 3.24248 4.22375 3.46954ZM2.65252 2.85994C3.351 2.51557 3.8778 2.69153 4.03934 2.92997C4.11583 3.04287 4.12464 3.18339 4.02287 3.33168C3.91627 3.487 3.68286 3.65578 3.26322 3.77873C2.92714 3.8772 2.69652 3.88136 2.5481 3.84025C2.40662 3.80107 2.33789 3.72118 2.31027 3.62703C2.28048 3.52551 2.29422 3.39057 2.35712 3.24607C2.41784 3.10657 2.5203 2.96838 2.65252 2.85994Z" fill="#7C7C7C"/>
<path fill-rule="evenodd" clip-rule="evenodd" d="M4.6934 3.50773C4.51178 3.90323 4.09213 4.24872 3.3899 4.45447C2.83251 4.61779 2.4009 4.62842 2.08186 4.52351C1.75684 4.41665 1.55954 4.19309 1.47396 3.92015C1.39 3.6524 1.4154 3.34506 1.51389 3.06019C1.61266 2.7745 1.78825 2.50125 2.01867 2.29964C2.52738 1.85454 3.05211 1.69866 3.51218 1.74244C3.97011 1.78601 4.3543 2.02692 4.58029 2.35673C4.80684 2.68736 4.87567 3.11081 4.6934 3.50773ZM3.4891 1.98498C3.10513 1.94844 2.64495 2.0754 2.17911 2.483C1.98316 2.65445 1.83023 2.89083 1.74416 3.13979C1.6578 3.38957 1.64204 3.64189 1.70644 3.84726C1.7692 4.04744 1.90976 4.21046 2.15796 4.29207C2.41212 4.37564 2.78907 4.37664 3.3214 4.22066C3.98132 4.02731 4.3293 3.71679 4.47199 3.40606C4.61403 3.09676 4.56385 2.76377 4.37931 2.49445C4.19421 2.2243 3.87522 2.02172 3.4891 1.98498Z" fill="#7C7C7C"/>
</g>
<rect x="1.24609" y="1.66039" width="3.65457" height="3.65457" rx="0.365457" stroke="#7C7C7C" stroke-width="0.243638"/>
</g>
<defs>
<clipPath id="clip0_237_718">
<rect width="5.84731" height="5.84731" fill="white" transform="translate(0.149902 0.563965)"/>
</clipPath>
<clipPath id="clip1_237_718">
<rect x="1.12427" y="1.53857" width="3.89821" height="3.89821" rx="0.487276" fill="white"/>
</clipPath>
</defs>
</svg>
