<svg width="6" height="6" viewBox="0 0 6 6" fill="none" xmlns="http://www.w3.org/2000/svg">
<g clip-path="url(#clip0_237_686)">
<mask id="path-1-inside-1_237_686" fill="white">
<path d="M4.91779 2.70969C4.91767 2.7096 4.91758 2.70948 4.91749 2.7094L3.32717 1.11929C3.25938 1.05149 3.16926 1.01416 3.07339 1.01416C2.97753 1.01416 2.88741 1.05149 2.81959 1.11929L1.2301 2.70859C1.22957 2.70913 1.229 2.70969 1.22849 2.71023C1.08929 2.85022 1.08953 3.07735 1.22918 3.21698C1.29298 3.28081 1.37721 3.31775 1.46731 3.32164C1.471 3.322 1.47469 3.32218 1.4784 3.32218H1.54176V4.49237C1.54176 4.72396 1.73022 4.91237 1.96183 4.91237H2.58402C2.6471 4.91237 2.69823 4.86121 2.69823 4.79816V3.88071C2.69823 3.77504 2.78422 3.68909 2.8899 3.68909H3.25688C3.36257 3.68909 3.44853 3.77504 3.44853 3.88071V4.79816C3.44853 4.86121 3.49966 4.91237 3.56274 4.91237H4.18493C4.41657 4.91237 4.605 4.72396 4.605 4.49237V3.32218H4.66377C4.75961 3.32218 4.84973 3.28485 4.91758 3.21701C5.05738 3.07717 5.05744 2.84962 4.91779 2.70969ZM4.75604 3.05552C4.73138 3.08018 4.69861 3.09377 4.66377 3.09377H4.49078C4.4277 3.09377 4.37657 3.14489 4.37657 3.20797V4.49237C4.37657 4.59801 4.29061 4.68396 4.18493 4.68396H3.67696V3.88071C3.67696 3.64912 3.48853 3.46068 3.25688 3.46068H2.8899C2.65826 3.46068 2.4698 3.64912 2.4698 3.88071V4.68396H1.96183C1.85618 4.68396 1.77019 4.59801 1.77019 4.49237V3.20797C1.77019 3.14489 1.71906 3.09377 1.65597 3.09377H1.48596C1.48417 3.09365 1.48242 3.09356 1.4806 3.09353C1.44658 3.09294 1.41466 3.07943 1.39075 3.05549C1.33989 3.00463 1.33989 2.92186 1.39075 2.87098C1.39078 2.87098 1.39078 2.87095 1.39081 2.87092L1.3909 2.87083L2.98116 1.28079C3.00579 1.25613 3.03853 1.24257 3.07339 1.24257C3.10822 1.24257 3.14097 1.25613 3.16563 1.28079L4.75554 2.8705C4.75577 2.87074 4.75604 2.87098 4.75628 2.87122C4.80687 2.92216 4.80678 3.00475 4.75604 3.05552Z"/>
</mask>
<path d="M4.91779 2.70969C4.91767 2.7096 4.91758 2.70948 4.91749 2.7094L3.32717 1.11929C3.25938 1.05149 3.16926 1.01416 3.07339 1.01416C2.97753 1.01416 2.88741 1.05149 2.81959 1.11929L1.2301 2.70859C1.22957 2.70913 1.229 2.70969 1.22849 2.71023C1.08929 2.85022 1.08953 3.07735 1.22918 3.21698C1.29298 3.28081 1.37721 3.31775 1.46731 3.32164C1.471 3.322 1.47469 3.32218 1.4784 3.32218H1.54176V4.49237C1.54176 4.72396 1.73022 4.91237 1.96183 4.91237H2.58402C2.6471 4.91237 2.69823 4.86121 2.69823 4.79816V3.88071C2.69823 3.77504 2.78422 3.68909 2.8899 3.68909H3.25688C3.36257 3.68909 3.44853 3.77504 3.44853 3.88071V4.79816C3.44853 4.86121 3.49966 4.91237 3.56274 4.91237H4.18493C4.41657 4.91237 4.605 4.72396 4.605 4.49237V3.32218H4.66377C4.75961 3.32218 4.84973 3.28485 4.91758 3.21701C5.05738 3.07717 5.05744 2.84962 4.91779 2.70969ZM4.75604 3.05552C4.73138 3.08018 4.69861 3.09377 4.66377 3.09377H4.49078C4.4277 3.09377 4.37657 3.14489 4.37657 3.20797V4.49237C4.37657 4.59801 4.29061 4.68396 4.18493 4.68396H3.67696V3.88071C3.67696 3.64912 3.48853 3.46068 3.25688 3.46068H2.8899C2.65826 3.46068 2.4698 3.64912 2.4698 3.88071V4.68396H1.96183C1.85618 4.68396 1.77019 4.59801 1.77019 4.49237V3.20797C1.77019 3.14489 1.71906 3.09377 1.65597 3.09377H1.48596C1.48417 3.09365 1.48242 3.09356 1.4806 3.09353C1.44658 3.09294 1.41466 3.07943 1.39075 3.05549C1.33989 3.00463 1.33989 2.92186 1.39075 2.87098C1.39078 2.87098 1.39078 2.87095 1.39081 2.87092L1.3909 2.87083L2.98116 1.28079C3.00579 1.25613 3.03853 1.24257 3.07339 1.24257C3.10822 1.24257 3.14097 1.25613 3.16563 1.28079L4.75554 2.8705C4.75577 2.87074 4.75604 2.87098 4.75628 2.87122C4.80687 2.92216 4.80678 3.00475 4.75604 3.05552Z" fill="#7C7C7C"/>
<path d="M4.91779 2.70969L5.14728 2.48067L5.13087 2.46423L5.1123 2.4503L4.91779 2.70969ZM4.91749 2.7094L5.14674 2.48013L5.14673 2.48012L4.91749 2.7094ZM3.32717 1.11929L3.09788 1.34851L3.09793 1.34857L3.32717 1.11929ZM2.81959 1.11929L3.04883 1.34856L3.04883 1.34856L2.81959 1.11929ZM1.2301 2.70859L1.00086 2.47932L1.00086 2.47932L1.2301 2.70859ZM1.22849 2.71023L1.45847 2.93891L1.46419 2.93285L1.22849 2.71023ZM1.22918 3.21698L1.45848 2.98777L1.45842 2.98772L1.22918 3.21698ZM1.46731 3.32164L1.49854 2.99893L1.48994 2.9981L1.48132 2.99773L1.46731 3.32164ZM1.54176 3.32218H1.86597V2.99796H1.54176V3.32218ZM4.605 3.32218V2.99796H4.28078V3.32218H4.605ZM4.91758 3.21701L5.14682 3.44628L5.14687 3.44623L4.91758 3.21701ZM4.75604 3.05552L4.98529 3.28479L4.98535 3.28472L4.75604 3.05552ZM3.67696 4.68396H3.35274V5.00817H3.67696V4.68396ZM2.4698 4.68396V5.00817H2.79402V4.68396H2.4698ZM1.48596 3.09377L1.46439 3.41727L1.47516 3.41798H1.48596V3.09377ZM1.4806 3.09353L1.47494 3.4177L1.47529 3.4177L1.4806 3.09353ZM1.39075 3.05549L1.62013 2.82637L1.61999 2.82622L1.39075 3.05549ZM1.39075 2.87098V2.54676H1.25641L1.16144 2.64178L1.39075 2.87098ZM1.39081 2.87092L1.62005 3.10019L1.39081 2.87092ZM1.3909 2.87083L1.16166 2.64156L1.16165 2.64156L1.3909 2.87083ZM2.98116 1.28079L3.2104 1.51006L3.21054 1.50992L2.98116 1.28079ZM3.16563 1.28079L2.93639 1.51006L2.93639 1.51006L3.16563 1.28079ZM4.75554 2.8705L4.98478 2.64123L4.98478 2.64123L4.75554 2.8705ZM4.75628 2.87122L4.98633 2.64275L4.98552 2.64195L4.75628 2.87122ZM5.1123 2.4503C5.1353 2.46755 5.15065 2.48402 5.1552 2.48892C5.15684 2.49068 5.16001 2.49419 5.15765 2.49159C5.15694 2.4908 5.15257 2.48597 5.14674 2.48013L4.68825 2.93866C4.68245 2.93287 4.67813 2.92808 4.67747 2.92735C4.67515 2.9248 4.67837 2.92836 4.68005 2.93017C4.6847 2.93517 4.70016 2.95175 4.72328 2.96908L5.1123 2.4503ZM5.14673 2.48012L3.55641 0.890023L3.09793 1.34857L4.68825 2.93867L5.14673 2.48012ZM3.55646 0.890077C3.42785 0.761423 3.25524 0.689943 3.07339 0.689943V1.33838C3.08328 1.33838 3.09091 1.34155 3.09788 1.34851L3.55646 0.890077ZM3.07339 0.689943C2.89154 0.689943 2.71895 0.76143 2.59034 0.890027L3.04883 1.34856C3.05586 1.34154 3.06352 1.33838 3.07339 1.33838V0.689943ZM2.59035 0.890025L1.00086 2.47932L1.45934 2.93786L3.04883 1.34856L2.59035 0.890025ZM1.00086 2.47932C1.00072 2.47946 0.999663 2.48052 0.998489 2.48171C0.997279 2.48293 0.995236 2.48502 0.992795 2.4876L1.46419 2.93285C1.46226 2.9349 1.46075 2.93644 1.46008 2.93711C1.45945 2.93775 1.45895 2.93826 1.45935 2.93786L1.00086 2.47932ZM0.998592 2.48162C0.733459 2.74826 0.733835 3.18018 0.999934 3.44625L1.45842 2.98772C1.44523 2.97452 1.44513 2.95218 1.4584 2.93884L0.998592 2.48162ZM0.999881 3.4462C1.12123 3.5676 1.28236 3.63817 1.4533 3.64556L1.48132 2.99773C1.47206 2.99733 1.46472 2.99402 1.45848 2.98777L0.999881 3.4462ZM1.43608 3.64435C1.45014 3.64571 1.46425 3.6464 1.4784 3.6464V2.99796C1.48512 2.99796 1.49185 2.99829 1.49854 2.99893L1.43608 3.64435ZM1.4784 3.6464H1.54176V2.99796H1.4784V3.6464ZM1.21754 3.32218V4.49237H1.86597V3.32218H1.21754ZM1.21754 4.49237C1.21754 4.90308 1.55122 5.23659 1.96183 5.23659V4.58815C1.90922 4.58815 1.86597 4.54484 1.86597 4.49237H1.21754ZM1.96183 5.23659H2.58402V4.58815H1.96183V5.23659ZM2.58402 5.23659C2.82619 5.23659 3.02245 5.04025 3.02245 4.79816H2.37402C2.37402 4.68218 2.46802 4.58815 2.58402 4.58815V5.23659ZM3.02245 4.79816V3.88071H2.37402V4.79816H3.02245ZM3.02245 3.88071C3.02245 3.9542 2.96319 4.01331 2.8899 4.01331V3.36488C2.60526 3.36488 2.37402 3.59589 2.37402 3.88071H3.02245ZM2.8899 4.01331H3.25688V3.36488H2.8899V4.01331ZM3.25688 4.01331C3.18354 4.01331 3.12431 3.95414 3.12431 3.88071H3.77274C3.77274 3.59595 3.54159 3.36488 3.25688 3.36488V4.01331ZM3.12431 3.88071V4.79816H3.77274V3.88071H3.12431ZM3.12431 4.79816C3.12431 5.04025 3.32057 5.23659 3.56274 5.23659V4.58815C3.67874 4.58815 3.77274 4.68218 3.77274 4.79816H3.12431ZM3.56274 5.23659H4.18493V4.58815H3.56274V5.23659ZM4.18493 5.23659C4.59559 5.23659 4.92922 4.90307 4.92922 4.49237H4.28078C4.28078 4.54485 4.23756 4.58815 4.18493 4.58815V5.23659ZM4.92922 4.49237V3.32218H4.28078V4.49237H4.92922ZM4.605 3.6464H4.66377V2.99796H4.605V3.6464ZM4.66377 3.6464C4.84564 3.6464 5.01821 3.57488 5.14682 3.44628L4.68834 2.98775C4.68126 2.99482 4.67358 2.99796 4.66377 2.99796V3.6464ZM5.14687 3.44623C5.41319 3.17983 5.41328 2.74721 5.14728 2.48067L4.6883 2.93872C4.70159 2.95204 4.70157 2.97451 4.68829 2.9878L5.14687 3.44623ZM4.5268 2.82625C4.56283 2.79022 4.61247 2.76955 4.66377 2.76955V3.41798C4.78474 3.41798 4.89993 3.37013 4.98529 3.28479L4.5268 2.82625ZM4.66377 2.76955H4.49078V3.41798H4.66377V2.76955ZM4.49078 2.76955C4.24867 2.76955 4.05235 2.9658 4.05235 3.20797H4.70078C4.70078 3.32398 4.60673 3.41798 4.49078 3.41798V2.76955ZM4.05235 3.20797V4.49237H4.70078V3.20797H4.05235ZM4.05235 4.49237C4.05235 4.41888 4.11161 4.35974 4.18493 4.35974V5.00817C4.4696 5.00817 4.70078 4.77713 4.70078 4.49237H4.05235ZM4.18493 4.35974H3.67696V5.00817H4.18493V4.35974ZM4.00118 4.68396V3.88071H3.35274V4.68396H4.00118ZM4.00118 3.88071C4.00118 3.47005 3.66758 3.13647 3.25688 3.13647V3.7849C3.30949 3.7849 3.35274 3.8282 3.35274 3.88071H4.00118ZM3.25688 3.13647H2.8899V3.7849H3.25688V3.13647ZM2.8899 3.13647C2.47924 3.13647 2.14558 3.47002 2.14558 3.88071H2.79402C2.79402 3.82823 2.83727 3.7849 2.8899 3.7849V3.13647ZM2.14558 3.88071V4.68396H2.79402V3.88071H2.14558ZM2.4698 4.35974H1.96183V5.00817H2.4698V4.35974ZM1.96183 4.35974C2.03515 4.35974 2.09441 4.41885 2.09441 4.49237H1.44597C1.44597 4.77716 1.67722 5.00817 1.96183 5.00817V4.35974ZM2.09441 4.49237V3.20797H1.44597V4.49237H2.09441ZM2.09441 3.20797C2.09441 2.9658 1.89809 2.76955 1.65597 2.76955V3.41798C1.54003 3.41798 1.44597 3.32398 1.44597 3.20797H2.09441ZM1.65597 2.76955H1.48596V3.41798H1.65597V2.76955ZM1.50752 2.77027C1.50245 2.76993 1.49493 2.7695 1.48592 2.76936L1.47529 3.4177C1.46991 3.41761 1.4659 3.41737 1.46439 3.41727L1.50752 2.77027ZM1.48627 2.76936C1.5357 2.77023 1.58419 2.79038 1.62013 2.82637L1.16136 3.28462C1.24514 3.36849 1.35745 3.41564 1.47494 3.4177L1.48627 2.76936ZM1.61999 2.82622C1.6958 2.90202 1.6957 3.0245 1.62006 3.10018L1.16144 2.64178C0.984071 2.81923 0.983974 3.10725 1.1615 3.28476L1.61999 2.82622ZM1.39075 3.1952C1.45084 3.1952 1.51714 3.17827 1.57668 3.13659C1.62715 3.10127 1.65417 3.06036 1.66053 3.05082C1.6643 3.04517 1.66756 3.03982 1.66655 3.04145C1.66652 3.0415 1.66578 3.0427 1.66484 3.04418C1.66384 3.04576 1.66237 3.04806 1.66054 3.0508C1.65283 3.06237 1.63962 3.08062 1.62005 3.10019L1.16156 2.64165C1.14198 2.66123 1.12876 2.6795 1.12104 2.69108C1.11921 2.69383 1.11773 2.69613 1.11673 2.69771C1.11579 2.6992 1.11505 2.7004 1.11502 2.70045C1.114 2.70209 1.11726 2.69674 1.12102 2.6911C1.12738 2.68157 1.15439 2.64067 1.20485 2.60536C1.26438 2.56369 1.33068 2.54676 1.39075 2.54676V3.1952ZM1.62005 3.10019L1.62014 3.1001L1.16165 2.64156L1.16156 2.64165L1.62005 3.10019ZM1.62014 3.1001L3.2104 1.51006L2.75192 1.05152L1.16166 2.64156L1.62014 3.1001ZM3.21054 1.50992C3.17428 1.54621 3.12448 1.56679 3.07339 1.56679V0.918354C2.95259 0.918354 2.83729 0.966052 2.75178 1.05166L3.21054 1.50992ZM3.07339 1.56679C3.0222 1.56679 2.9725 1.54617 2.93639 1.51006L3.39487 1.05152C3.30944 0.966098 3.19425 0.918354 3.07339 0.918354V1.56679ZM2.93639 1.51006L4.52629 3.09977L4.98478 2.64123L3.39487 1.05152L2.93639 1.51006ZM4.52629 3.09977C4.52867 3.10215 4.53063 3.10403 4.53178 3.10514C4.53238 3.10571 4.53288 3.10618 4.53318 3.10647C4.53334 3.10662 4.53347 3.10674 4.53356 3.10682C4.53364 3.10689 4.53371 3.10696 4.53371 3.10697C4.53393 3.10717 4.53311 3.1064 4.53216 3.10549C4.53113 3.10451 4.52929 3.10274 4.52703 3.10048L4.98552 2.64195C4.98315 2.63957 4.98119 2.63769 4.98003 2.63658C4.97943 2.63601 4.97894 2.63554 4.97863 2.63525C4.97847 2.6351 4.97834 2.63498 4.97826 2.6349C4.97818 2.63483 4.97811 2.63476 4.9781 2.63475C4.97789 2.63455 4.9787 2.63532 4.97965 2.63622C4.98069 2.63721 4.98252 2.63898 4.98478 2.64123L4.52629 3.09977ZM4.52623 3.09968C4.45115 3.02407 4.45105 2.90203 4.52673 2.82632L4.98535 3.28472C5.16251 3.10747 5.1626 2.82025 4.98633 2.64276L4.52623 3.09968Z" fill="#7C7C7C" mask="url(#path-1-inside-1_237_686)"/>
</g>
<defs>
<clipPath id="clip0_237_686">
<rect width="5.84731" height="5.84731" fill="white" transform="translate(0.149902 0.0400391)"/>
</clipPath>
</defs>
</svg>
