<svg width="6" height="7" viewBox="0 0 6 7" fill="none" xmlns="http://www.w3.org/2000/svg">
<g clip-path="url(#clip0_237_703)">
<path d="M4.73631 2.08162L4.92537 1.89258M4.73631 2.08162L4.92537 1.89258M4.73631 2.08162C4.92377 2.38738 5.02248 2.73693 5.02248 3.09852C5.02248 3.61913 4.81973 4.10861 4.4516 4.47674C4.08346 4.84488 3.59399 5.04762 3.07337 5.04762C2.55276 5.04762 2.06328 4.84488 1.69515 4.47674C1.32701 4.10861 1.12427 3.61913 1.12427 3.09852C1.12427 2.5779 1.32701 2.08843 1.69515 1.72029C2.06328 1.35216 2.55276 1.14941 3.07337 1.14941C3.43496 1.14941 3.78454 1.24812 4.09028 1.43558L4.27934 1.24655L4.73631 2.08162ZM4.92537 1.89258C4.95675 1.86117 4.96711 1.81441 4.95191 1.7727L4.8787 1.84591L4.92537 1.89258ZM4.95182 1.77246C4.93652 1.73078 4.89846 1.70176 4.8542 1.69802L4.95182 1.77246ZM4.95182 1.77246L4.84865 1.76376L4.95182 1.77246ZM1.74182 4.43008C1.38635 4.07464 1.19025 3.60121 1.19025 3.09852C1.19025 2.59583 1.38634 2.12241 1.74181 1.76697L4.40493 4.43007C4.40493 4.43007 4.40493 4.43007 4.40493 4.43007C4.40493 4.43008 4.40492 4.43008 4.40492 4.43008M1.74182 4.43008C1.74182 4.43008 1.74181 4.43007 1.74181 4.43007L1.81 4.36189L1.74182 4.43008ZM1.74182 4.43008C2.09726 4.78555 2.57068 4.98164 3.07337 4.98164C3.57606 4.98164 4.04948 4.78555 4.40492 4.43008M4.40492 4.43008L4.33675 4.36189L4.40492 4.43008ZM3.10748 3.13262L3.10748 3.13262C3.10748 3.13262 3.10748 3.13262 3.10748 3.13262ZM3.10748 3.13262C3.10747 3.13263 3.10746 3.13264 3.10745 3.13265M3.10748 3.13262L3.10745 3.13265M3.10745 3.13265L3.10744 3.13266L3.10745 3.13265Z" fill="#7C7C7C" stroke="white" stroke-width="0.324851"/>
</g>
<defs>
<clipPath id="clip0_237_703">
<rect width="5.84731" height="5.84731" fill="white" transform="translate(0.149902 0.174805)"/>
</clipPath>
</defs>
</svg>
