<svg width="40" height="41" viewBox="0 0 40 41" fill="none" xmlns="http://www.w3.org/2000/svg">
<path fill-rule="evenodd" clip-rule="evenodd" d="M5 18.5233C5 12.2383 5 9.09494 6.95333 7.14327C8.905 5.18994 12.0483 5.18994 18.3333 5.18994H21.6667C27.9517 5.18994 31.095 5.18994 33.0467 7.14327C35 9.09494 35 12.2383 35 18.5233V21.8566C35 28.1416 35 31.2849 33.0467 33.2366C31.095 35.1899 27.9517 35.1899 21.6667 35.1899H18.3333C12.0483 35.1899 8.905 35.1899 6.95333 33.2366C5 31.2849 5 28.1416 5 21.8566V18.5233ZM30 12.6899C30 13.353 29.7366 13.9889 29.2678 14.4577C28.7989 14.9265 28.163 15.1899 27.5 15.1899C26.837 15.1899 26.2011 14.9265 25.7322 14.4577C25.2634 13.9889 25 13.353 25 12.6899C25 12.0269 25.2634 11.391 25.7322 10.9222C26.2011 10.4533 26.837 10.1899 27.5 10.1899C28.163 10.1899 28.7989 10.4533 29.2678 10.9222C29.7366 11.391 30 12.0269 30 12.6899ZM23.3333 21.8566C23.3333 22.7407 22.9821 23.5885 22.357 24.2136C21.7319 24.8388 20.8841 25.1899 20 25.1899C19.1159 25.1899 18.2681 24.8388 17.643 24.2136C17.0179 23.5885 16.6667 22.7407 16.6667 21.8566C16.6667 20.9726 17.0179 20.1247 17.643 19.4996C18.2681 18.8745 19.1159 18.5233 20 18.5233C20.8841 18.5233 21.7319 18.8745 22.357 19.4996C22.9821 20.1247 23.3333 20.9726 23.3333 21.8566ZM26.6667 21.8566C26.6667 23.6247 25.9643 25.3204 24.714 26.5707C23.4638 27.8209 21.7681 28.5233 20 28.5233C18.2319 28.5233 16.5362 27.8209 15.286 26.5707C14.0357 25.3204 13.3333 23.6247 13.3333 21.8566C13.3333 20.0885 14.0357 18.3928 15.286 17.1426C16.5362 15.8923 18.2319 15.1899 20 15.1899C21.7681 15.1899 23.4638 15.8923 24.714 17.1426C25.9643 18.3928 26.6667 20.0885 26.6667 21.8566Z" fill="white"/>
</svg>
