<svg width="40" height="41" viewBox="0 0 40 41" fill="none" xmlns="http://www.w3.org/2000/svg">
<path d="M12.2559 18.7012V16.0262C12.2559 15.8679 12.2559 15.8046 12.4625 15.8046C14.2342 15.8046 15.6742 15.6996 16.3892 16.1212C17.1059 16.5412 17.1359 17.1212 17.1475 17.2946C17.1609 17.4679 17.1542 17.7162 16.8209 18.3212C16.4875 18.9262 14.9959 18.9379 13.9192 18.9379H12.4942C12.3192 18.9379 12.2559 18.8746 12.2559 18.7012ZM17.1659 21.5046C17.3307 21.7154 17.4483 21.9591 17.5107 22.2193C17.5731 22.4795 17.5789 22.7501 17.5277 23.0128C17.4765 23.2754 17.3695 23.524 17.2139 23.7417C17.0583 23.9594 16.8578 24.1411 16.6259 24.2746C16.2848 24.4176 15.9191 24.4929 15.5492 24.4962H12.4775C12.3192 24.4962 12.2559 24.4962 12.2559 24.2912V21.1246C12.2559 20.9662 12.2559 20.9029 12.4625 20.9029H14.5042C15.7709 20.9029 16.5625 20.7929 17.1659 21.5046Z" fill="white"/>
<path d="M28.2196 20.1102C28.138 19.9176 28.0141 19.7458 27.8571 19.6077C27.7001 19.4695 27.5139 19.3685 27.3125 19.3121C26.91 19.2023 26.4888 19.1792 26.0766 19.2441C25.6645 19.309 25.2708 19.4605 24.9215 19.6887C24.5731 20.0401 24.3481 20.495 24.2804 20.9852C24.2804 21.1567 24.2804 21.1887 24.484 21.1887H28.2821C28.4696 21.1887 28.4696 21.1887 28.4535 20.9531C28.4352 20.6587 28.3566 20.3714 28.2196 20.1102ZM28.2196 20.1102C28.138 19.9176 28.0125 19.7458 27.8555 19.6077C27.6984 19.4695 27.5139 19.3685 27.3125 19.3121C26.91 19.2023 26.4872 19.1792 26.075 19.2441C25.6629 19.309 25.2708 19.4605 24.9215 19.6887C24.5731 20.0401 24.3465 20.495 24.2788 20.9852C24.2788 21.1567 24.2788 21.1887 24.4824 21.1887H28.2821C28.4696 21.1887 28.4696 21.1887 28.4535 20.9531C28.4352 20.6587 28.3534 20.3714 28.2163 20.1102M30 5.03166H11.25C9.5924 5.03166 8.00268 5.69014 6.83058 6.86224C5.65848 8.03434 5 9.62405 5 11.2817V30.0317C5 31.6893 5.65848 33.279 6.83058 34.4511C8.00268 35.6232 9.5924 36.2817 11.25 36.2817H30C31.6576 36.2817 33.2473 35.6232 34.4194 34.4511C35.5915 33.279 36.25 31.6893 36.25 30.0317V11.2817C36.25 9.62405 35.5915 8.03434 34.4194 6.86224C33.2473 5.69014 31.6576 5.03166 30 5.03166ZM23.875 14.9836C23.875 14.8602 23.875 14.8121 24.016 14.8121H29.0785V16.1262C29.0785 16.1262 29.0833 16.2192 29 16.2192H24.0946C23.875 16.2192 23.875 16.2192 23.875 16.0012V14.9836ZM19.1875 26.4692C17.2644 27.5156 14.0321 27.0942 10.2035 27.0942V14.1406H16.3125C17.875 14.1406 19.734 14.5317 20.234 16.1871C20.4936 16.9101 20.4778 17.7035 20.1896 18.4156C19.9014 19.1278 19.3609 19.7088 18.6715 20.0477C19.307 20.2829 19.8618 20.6952 20.2703 21.2358C20.6788 21.7765 20.9238 22.4228 20.9764 23.0984C21.029 23.774 20.887 24.4505 20.5671 25.0479C20.2472 25.6452 19.7629 26.1384 19.1715 26.4692H19.1875ZM30.8285 22.7817H24.5785C24.4071 22.7817 24.25 22.8746 24.2804 23.0942C24.4679 24.0156 24.8894 24.9852 25.8446 25.1262C26.3489 25.2754 26.8887 25.2519 27.3782 25.0595C27.8677 24.867 28.2789 24.5165 28.5465 24.0637C28.5465 24.0637 28.625 23.9692 28.6715 23.9692H30.7035C30.7035 23.9692 30.8285 23.9692 30.7965 24.0781C30.5837 24.6856 30.2664 25.2513 29.859 25.7496C29.3157 26.2681 28.6604 26.6544 27.9437 26.8787C27.227 27.103 26.4683 27.1593 25.7264 27.043C24.9845 26.9268 24.2794 26.6412 23.6657 26.2085C23.0519 25.7757 22.5461 25.2074 22.1875 24.5477C21.9658 24.108 21.8283 23.6308 21.7821 23.1406C21.5033 21.9092 21.7164 20.6176 22.3758 19.5409C23.0352 18.4642 24.0889 17.6875 25.3125 17.3762C28.859 16.6102 31.109 19.0477 31.109 22.4852C31.1142 22.5254 31.1102 22.5662 31.0971 22.6046C31.0841 22.6429 31.0624 22.6778 31.0338 22.7064C31.0051 22.7351 30.9703 22.7568 30.9319 22.7698C30.8935 22.7829 30.8527 22.7869 30.8125 22.7817H30.8285ZM27.3285 19.3121C26.926 19.2027 26.5049 19.1797 26.0929 19.2448C25.6811 19.3089 25.3125 19.3874 24.9375 19.6887C24.5625 19.9884 24.3638 20.4948 24.2965 20.9852C24.2965 21.1567 24.2965 21.1887 24.5 21.1887H28.2821C28.4696 21.1887 28.4696 21.1887 28.4535 20.9531C28.4352 20.6587 28.3566 20.3714 28.2196 20.1102C28.138 19.9176 28.0141 19.7458 27.8571 19.6077C27.7001 19.4695 27.5139 19.3685 27.3125 19.3121H27.3285Z" fill="white"/>
</svg>
