<svg width="40" height="41" viewBox="0 0 40 41" fill="none" xmlns="http://www.w3.org/2000/svg">
<path d="M31.6667 5.18994C32.5507 5.18994 33.3986 5.54113 34.0237 6.16625C34.6488 6.79137 35 7.63922 35 8.52327V31.8566C35 32.7407 34.6488 33.5885 34.0237 34.2136C33.3986 34.8388 32.5507 35.1899 31.6667 35.1899H8.33333C7.44928 35.1899 6.60143 34.8388 5.97631 34.2136C5.35119 33.5885 5 32.7407 5 31.8566V8.52327C5 7.63922 5.35119 6.79137 5.97631 6.16625C6.60143 5.54113 7.44928 5.18994 8.33333 5.18994H31.6667ZM30.8333 31.0233V22.1899C30.8333 20.7489 30.2609 19.3669 29.2419 18.348C28.223 17.329 26.841 16.7566 25.4 16.7566C23.9833 16.7566 22.3333 17.6233 21.5333 18.9233V17.0733H16.8833V31.0233H21.5333V22.8066C21.5333 21.5233 22.5667 20.4733 23.85 20.4733C24.4688 20.4733 25.0623 20.7191 25.4999 21.1567C25.9375 21.5943 26.1833 22.1878 26.1833 22.8066V31.0233H30.8333ZM11.4667 14.4566C12.2093 14.4566 12.9215 14.1616 13.4466 13.6365C13.9717 13.1114 14.2667 12.3992 14.2667 11.6566C14.2667 10.1066 13.0167 8.83994 11.4667 8.83994C10.7196 8.83994 10.0032 9.1367 9.47498 9.66492C8.94675 10.1932 8.65 10.9096 8.65 11.6566C8.65 13.2066 9.91667 14.4566 11.4667 14.4566ZM13.7833 31.0233V17.0733H9.16667V31.0233H13.7833Z" fill="white"/>
</svg>
