<svg width="128" height="27" viewBox="0 0 128 27" fill="none" xmlns="http://www.w3.org/2000/svg">
<path d="M121.641 26.5078C120.247 26.5078 119.551 26.1432 119.551 25.4141V21.5078H110.449C110.267 21.5078 110.078 21.3125 109.883 20.9219C109.688 20.5312 109.518 20.0755 109.375 19.5547C109.245 19.0208 109.18 18.5977 109.18 18.2852C109.18 18.1159 109.206 17.9922 109.258 17.9141L119.551 2.71875C119.746 2.45833 120.007 2.28255 120.332 2.19141C120.671 2.10026 121.12 2.05469 121.68 2.05469H122.617C123.333 2.05469 123.854 2.15234 124.18 2.34766C124.518 2.52995 124.688 2.8099 124.688 3.1875V17.4453H126.016C126.38 17.4453 126.641 17.582 126.797 17.8555C126.966 18.1289 127.051 18.5716 127.051 19.1836V19.7891C127.051 20.388 126.966 20.8242 126.797 21.0977C126.641 21.3711 126.38 21.5078 126.016 21.5078H124.688V25.4141C124.688 26.1432 123.997 26.5078 122.617 26.5078H121.641ZM119.551 17.4453V9.49609L119.414 9.45703L114.355 17.4453H119.551Z" fill="#49A8FF"/>
<path d="M92.3242 26.4492C92.0768 26.4492 91.849 26.0846 91.6406 25.3555C91.4453 24.6263 91.3477 23.9688 91.3477 23.3828C91.3477 23.1615 91.3802 22.9857 91.4453 22.8555L100.234 12.1133C101.12 11.0065 101.562 9.89323 101.562 8.77344C101.562 7.875 101.263 7.1849 100.664 6.70312C100.065 6.20833 99.2839 5.96094 98.3203 5.96094C97.6823 5.96094 97.1159 6.05859 96.6211 6.25391C96.1393 6.44922 95.6445 6.70964 95.1367 7.03516C94.9674 7.15234 94.8047 7.25 94.6484 7.32812C94.4922 7.40625 94.362 7.44531 94.2578 7.44531C93.9193 7.44531 93.5938 7.3151 93.2812 7.05469C92.9818 6.79427 92.7409 6.47526 92.5586 6.09766C92.3763 5.72005 92.2852 5.375 92.2852 5.0625C92.2852 4.41146 92.6237 3.84505 93.3008 3.36328C93.9779 2.86849 94.8438 2.4974 95.8984 2.25C96.9661 1.98958 98.0664 1.85938 99.1992 1.85938C100.788 1.85938 102.148 2.15234 103.281 2.73828C104.427 3.3112 105.293 4.11198 105.879 5.14062C106.465 6.15625 106.758 7.32812 106.758 8.65625C106.758 9.72396 106.569 10.7331 106.191 11.6836C105.827 12.6341 105.312 13.513 104.648 14.3203L98.125 22.3867H106.133C106.497 22.3867 106.764 22.5299 106.934 22.8164C107.103 23.0898 107.188 23.526 107.188 24.125V24.7109C107.188 25.3099 107.103 25.7526 106.934 26.0391C106.764 26.3125 106.497 26.4492 106.133 26.4492H92.3242Z" fill="#49A8FF"/>
<path d="M76.7578 5.29688C76.0286 5.29688 75.4948 5.20573 75.1562 5.02344C74.8307 4.84115 74.668 4.5612 74.668 4.18359V1.39062C74.668 1.01302 74.8372 0.733073 75.1758 0.550781C75.5143 0.355469 76.0417 0.257812 76.7578 0.257812H77.7148C78.431 0.257812 78.9583 0.355469 79.2969 0.550781C79.6354 0.733073 79.8047 1.01302 79.8047 1.39062V4.18359C79.8047 4.5612 79.6354 4.84115 79.2969 5.02344C78.9714 5.20573 78.444 5.29688 77.7148 5.29688H76.7578ZM76.7578 26.5078C75.3646 26.5078 74.668 26.1432 74.668 25.4141V9.32031C74.668 8.95573 74.8372 8.68229 75.1758 8.5C75.5143 8.31771 76.0417 8.22656 76.7578 8.22656H77.7148C78.431 8.22656 78.9583 8.31771 79.2969 8.5C79.6354 8.68229 79.8047 8.95573 79.8047 9.32031V25.4141C79.8047 26.1432 79.1081 26.5078 77.7148 26.5078H76.7578Z" fill="#49A8FF"/>
<path d="M57.5195 26.5078C56.1393 26.5078 55.4492 26.1432 55.4492 25.4141V14.3984C55.4492 12.7318 55.3385 11.3451 55.1172 10.2383C55.0521 9.88672 55.0195 9.63932 55.0195 9.49609C55.0195 9.23568 55.2604 9.02734 55.7422 8.87109C56.237 8.70182 56.7904 8.57812 57.4023 8.5C58.0273 8.42188 58.5286 8.38281 58.9062 8.38281C59.3099 8.38281 59.5898 8.53255 59.7461 8.83203C59.9154 9.13151 60.0651 9.56771 60.1953 10.1406L60.3125 10.6484C60.8594 9.91927 61.5885 9.30078 62.5 8.79297C63.4245 8.27214 64.4141 8.01172 65.4688 8.01172C67.2135 8.01172 68.5026 8.46745 69.3359 9.37891C70.1693 10.2904 70.5859 11.7031 70.5859 13.6172V25.4141C70.5859 26.1432 69.8828 26.5078 68.4766 26.5078H67.5195C66.1393 26.5078 65.4492 26.1432 65.4492 25.4141V14.3984C65.4492 13.6953 65.2799 13.1615 64.9414 12.7969C64.6159 12.4323 64.082 12.25 63.3398 12.25C62.7148 12.25 62.1615 12.4583 61.6797 12.875C61.1979 13.2917 60.8333 13.7539 60.5859 14.2617V25.4141C60.5859 26.1432 59.8828 26.5078 58.4766 26.5078H57.5195Z" fill="#49A8FF"/>
<path d="M45.918 8.01172C47.6497 8.01172 48.9258 8.46745 49.7461 9.37891C50.5794 10.2904 50.9961 11.7031 50.9961 13.6172V25.4141C50.9961 26.1432 50.293 26.5078 48.8867 26.5078H47.9297C46.5495 26.5078 45.8594 26.1432 45.8594 25.4141V14.3984C45.8594 13.6953 45.6966 13.1615 45.3711 12.7969C45.0586 12.4323 44.5312 12.25 43.7891 12.25C43.138 12.25 42.5846 12.4518 42.1289 12.8555C41.6862 13.2461 41.3281 13.7018 41.0547 14.2227V25.4141C41.0547 26.1432 40.3581 26.5078 38.9648 26.5078H37.9883C36.6081 26.5078 35.918 26.1432 35.918 25.4141V14.3984C35.918 13.6953 35.7552 13.1615 35.4297 12.7969C35.1172 12.4323 34.5964 12.25 33.8672 12.25C33.2422 12.25 32.6888 12.4583 32.207 12.875C31.7383 13.2917 31.3802 13.7539 31.1328 14.2617V25.4141C31.1328 26.1432 30.4297 26.5078 29.0234 26.5078H28.0664C26.6862 26.5078 25.9961 26.1432 25.9961 25.4141V14.3984C25.9961 12.7318 25.8854 11.3451 25.6641 10.2383C25.599 9.88672 25.5664 9.63932 25.5664 9.49609C25.5664 9.23568 25.8073 9.02734 26.2891 8.87109C26.7839 8.70182 27.3372 8.57812 27.9492 8.5C28.5742 8.42188 29.0755 8.38281 29.4531 8.38281C29.8568 8.38281 30.1367 8.53255 30.293 8.83203C30.4622 9.13151 30.612 9.56771 30.7422 10.1406L30.8594 10.6484C31.4062 9.90625 32.1354 9.28125 33.0469 8.77344C33.9583 8.26562 34.9414 8.01172 35.9961 8.01172C37.194 8.01172 38.1641 8.22656 38.9062 8.65625C39.6615 9.08594 40.2148 9.75 40.5664 10.6484C41.1523 9.90625 41.9206 9.28125 42.8711 8.77344C43.8216 8.26562 44.8372 8.01172 45.918 8.01172Z" fill="#49A8FF"/>
<path d="M11.1328 26.7422C8.76302 26.7422 6.74479 26.2604 5.07812 25.2969C3.42448 24.3333 2.16146 22.9271 1.28906 21.0781C0.429688 19.2161 0 16.9505 0 14.2812C0 11.625 0.429688 9.3724 1.28906 7.52344C2.16146 5.66146 3.42448 4.25521 5.07812 3.30469C6.74479 2.34115 8.76302 1.85938 11.1328 1.85938C13.5156 1.85938 15.5339 2.34115 17.1875 3.30469C18.8542 4.25521 20.1172 5.66146 20.9766 7.52344C21.8359 9.3724 22.2656 11.625 22.2656 14.2812C22.2656 16.9505 21.8359 19.2161 20.9766 21.0781C20.1172 22.9271 18.8542 24.3333 17.1875 25.2969C15.5339 26.2604 13.5156 26.7422 11.1328 26.7422ZM11.1328 22.1719C12.9948 22.1719 14.401 21.5013 15.3516 20.1602C16.3021 18.806 16.7773 16.8464 16.7773 14.2812C16.7773 11.7161 16.3021 9.76953 15.3516 8.44141C14.401 7.11328 12.9948 6.44922 11.1328 6.44922C9.28385 6.44922 7.8776 7.11979 6.91406 8.46094C5.96354 9.78906 5.48828 11.7292 5.48828 14.2812C5.48828 16.8464 5.97005 18.806 6.93359 20.1602C7.89714 21.5013 9.29688 22.1719 11.1328 22.1719Z" fill="#49A8FF"/>
</svg>
