<svg width="6" height="7" viewBox="0 0 6 7" fill="none" xmlns="http://www.w3.org/2000/svg">
<g clip-path="url(#clip0_237_738)">
<path d="M5.54848 5.43023C5.36084 5.61796 5.0571 5.61794 4.86947 5.43027L5.54848 5.43023ZM5.54848 5.43023C5.7356 5.24302 5.73558 4.93844 5.54844 4.75124L5.54848 5.43023ZM4.26719 3.53209L4.23359 3.60838L4.29252 3.66733L5.46228 4.83737C5.60187 4.977 5.60188 5.20448 5.46231 5.3441L5.46231 5.34411C5.32226 5.48423 5.09568 5.48423 4.95562 5.34414L3.79184 4.18008L3.73174 4.11996L3.65457 4.15563C3.20616 4.36293 2.64469 4.28964 2.26171 3.90658C1.77962 3.42437 1.77962 2.63948 2.26171 2.15728L2.26171 2.15728C2.74509 1.67378 3.52729 1.67384 4.01062 2.15728C4.38128 2.52804 4.46716 3.07811 4.26719 3.53209ZM2.30615 3.86215C2.7649 4.32102 3.50749 4.32095 3.96617 3.86215C4.42393 3.40429 4.42393 2.65958 3.96617 2.20171C3.50741 1.74284 2.76482 1.74292 2.30615 2.20171C1.84839 2.65958 1.84839 3.40429 2.30615 3.86215ZM3.89897 4.0057L3.79119 4.09055L3.88817 4.18756L5.00005 5.29969C5.00005 5.2997 5.00005 5.2997 5.00006 5.2997C5.11551 5.4152 5.30247 5.41513 5.41787 5.29968C5.53312 5.18438 5.53309 4.99709 5.41784 4.8818L5.41784 4.8818L4.30406 3.76775L4.20541 3.66908L4.12094 3.78013C4.05651 3.86485 3.98233 3.94008 3.89897 4.0057Z" fill="#7C7C7C" stroke="#7C7C7C" stroke-width="0.243649"/>
<path d="M1.26495 3.3873H0.611497C0.594146 3.3873 0.580076 3.37323 0.580076 3.35588C0.580076 3.33853 0.594146 3.32446 0.611497 3.32446H1.26495C1.2823 3.32446 1.29637 3.33853 1.29637 3.35588C1.29637 3.37323 1.2823 3.3873 1.26495 3.3873Z" fill="#7C7C7C" stroke="#7C7C7C" stroke-width="0.243649"/>
<path d="M0.611497 4.16293H1.51C1.59463 4.16293 1.66325 4.09432 1.66325 4.00969C1.66325 3.92506 1.59463 3.85645 1.51 3.85645H0.611497C0.526865 3.85645 0.458252 3.92506 0.458252 4.00969C0.458252 4.09432 0.526865 4.16293 0.611497 4.16293Z" fill="#7C7C7C"/>
<path d="M0.611497 4.81674H2.16347C2.2481 4.81674 2.31671 4.74813 2.31671 4.6635C2.31671 4.57887 2.2481 4.51025 2.16347 4.51025H0.611497C0.526865 4.51025 0.458252 4.57887 0.458252 4.6635C0.458252 4.74813 0.526865 4.81674 0.611497 4.81674Z" fill="#7C7C7C"/>
<path d="M3.96049 5.16455H0.611497C0.526865 5.16455 0.458252 5.23316 0.458252 5.3178C0.458252 5.40243 0.526865 5.47104 0.611497 5.47104H3.96049C4.04513 5.47104 4.11374 5.40243 4.11374 5.3178C4.11374 5.23316 4.04513 5.16455 3.96049 5.16455Z" fill="#7C7C7C"/>
</g>
<defs>
<clipPath id="clip0_237_738">
<rect width="5.84731" height="5.84731" fill="white" transform="translate(0.149902 0.698242)"/>
</clipPath>
</defs>
</svg>
