<svg width="18" height="18" viewBox="0 0 18 18" fill="none" xmlns="http://www.w3.org/2000/svg">
<path d="M4.56818 2.18182C4.56818 1.80526 4.26292 1.5 3.88636 1.5C3.50981 1.5 3.20454 1.80526 3.20454 2.18182V3.20454H2.18182C1.80526 3.20454 1.5 3.50981 1.5 3.88636C1.5 4.26292 1.80526 4.56818 2.18182 4.56818H3.20454V5.59091C3.20454 5.96746 3.50981 6.27273 3.88636 6.27273C4.26292 6.27273 4.56818 5.96746 4.56818 5.59091V4.56818H5.59091C5.96746 4.56818 6.27273 4.26292 6.27273 3.88636C6.27273 3.50981 5.96746 3.20454 5.59091 3.20454H4.56818V2.18182Z" fill="#FFC42D"/>
<path d="M10.318 2.6187C10.2167 2.35539 9.96369 2.18164 9.68158 2.18164C9.39947 2.18164 9.14649 2.35539 9.0452 2.6187L7.86282 5.69293C7.65801 6.22546 7.59364 6.37891 7.5056 6.50273C7.41726 6.62696 7.30872 6.7355 7.18449 6.82384C7.06068 6.91188 6.90722 6.97624 6.37469 7.18106L3.30047 8.36345C3.03715 8.46473 2.8634 8.7177 2.8634 8.99982C2.8634 9.28195 3.03715 9.53494 3.30047 9.63623L6.37469 10.8186C6.90722 11.0234 7.06068 11.0878 7.18449 11.1758C7.30872 11.2642 7.41726 11.3727 7.5056 11.4969C7.59364 11.6207 7.65801 11.7742 7.86282 12.3067L9.0452 15.3809C9.14649 15.6442 9.39947 15.818 9.68158 15.818C9.96369 15.818 10.2167 15.6442 10.318 15.3809L11.5003 12.3067C11.7052 11.7742 11.7695 11.6207 11.8575 11.4969C11.9459 11.3727 12.0545 11.2642 12.1787 11.1758C12.3025 11.0878 12.456 11.0234 12.9885 10.8186L16.0627 9.63623C16.326 9.53494 16.4997 9.28195 16.4997 8.99982C16.4997 8.7177 16.326 8.46473 16.0627 8.36345L12.9885 7.18106C12.456 6.97624 12.3025 6.91188 12.1787 6.82384C12.0545 6.7355 11.9459 6.62696 11.8575 6.50273C11.7695 6.37891 11.7052 6.22546 11.5003 5.69293L10.318 2.6187Z" fill="#FFC42D"/>
<path d="M4.56818 12.4084C4.56818 12.0318 4.26292 11.7266 3.88636 11.7266C3.50981 11.7266 3.20454 12.0318 3.20454 12.4084V13.4311H2.18182C1.80526 13.4311 1.5 13.7363 1.5 14.113C1.5 14.4895 1.80526 14.7947 2.18182 14.7947H3.20454V15.8175C3.20454 16.194 3.50981 16.4993 3.88636 16.4993C4.26292 16.4993 4.56818 16.194 4.56818 15.8175V14.7947H5.59091C5.96746 14.7947 6.27273 14.4895 6.27273 14.113C6.27273 13.7363 5.96746 13.4311 5.59091 13.4311H4.56818V12.4084Z" fill="#FFC42D"/>
</svg>
