<svg width="18" height="18" viewBox="0 0 18 18" fill="none" xmlns="http://www.w3.org/2000/svg">
<path d="M4.56818 2.18182C4.56818 1.80526 4.26292 1.5 3.88636 1.5C3.50981 1.5 3.20454 1.80526 3.20454 2.18182V3.20454H2.18182C1.80526 3.20454 1.5 3.50981 1.5 3.88636C1.5 4.26292 1.80526 4.56818 2.18182 4.56818H3.20454V5.59091C3.20454 5.96746 3.50981 6.27273 3.88636 6.27273C4.26292 6.27273 4.56818 5.96746 4.56818 5.59091V4.56818H5.59091C5.96746 4.56818 6.27273 4.26292 6.27273 3.88636C6.27273 3.50981 5.96746 3.20454 5.59091 3.20454H4.56818V2.18182Z" fill="#995AB3"/>
<path d="M10.3178 2.6187C10.2166 2.35539 9.96357 2.18164 9.68146 2.18164C9.39935 2.18164 9.14637 2.35539 9.04508 2.6187L7.8627 5.69293C7.65788 6.22546 7.59352 6.37891 7.50548 6.50273C7.41714 6.62696 7.3086 6.7355 7.18437 6.82384C7.06055 6.91188 6.9071 6.97624 6.37457 7.18106L3.30035 8.36345C3.03703 8.46473 2.86328 8.7177 2.86328 8.99982C2.86328 9.28195 3.03703 9.53494 3.30035 9.63623L6.37457 10.8186C6.9071 11.0234 7.06055 11.0878 7.18437 11.1758C7.3086 11.2642 7.41714 11.3727 7.50548 11.4969C7.59352 11.6207 7.65788 11.7742 7.8627 12.3067L9.04508 15.3809C9.14637 15.6442 9.39935 15.818 9.68146 15.818C9.96357 15.818 10.2166 15.6442 10.3178 15.3809L11.5002 12.3067C11.7051 11.7742 11.7694 11.6207 11.8574 11.4969C11.9458 11.3727 12.0544 11.2642 12.1786 11.1758C12.3023 11.0878 12.4558 11.0234 12.9884 10.8186L16.0626 9.63623C16.3259 9.53494 16.4996 9.28195 16.4996 8.99982C16.4996 8.7177 16.3259 8.46473 16.0626 8.36345L12.9884 7.18106C12.4558 6.97624 12.3023 6.91188 12.1786 6.82384C12.0544 6.7355 11.9458 6.62696 11.8574 6.50273C11.7694 6.37891 11.7051 6.22546 11.5002 5.69293L10.3178 2.6187Z" fill="#995AB3"/>
<path d="M4.56818 12.4084C4.56818 12.0318 4.26292 11.7266 3.88636 11.7266C3.50981 11.7266 3.20454 12.0318 3.20454 12.4084V13.4311H2.18182C1.80526 13.4311 1.5 13.7363 1.5 14.113C1.5 14.4895 1.80526 14.7947 2.18182 14.7947H3.20454V15.8175C3.20454 16.194 3.50981 16.4993 3.88636 16.4993C4.26292 16.4993 4.56818 16.194 4.56818 15.8175V14.7947H5.59091C5.96746 14.7947 6.27273 14.4895 6.27273 14.113C6.27273 13.7363 5.96746 13.4311 5.59091 13.4311H4.56818V12.4084Z" fill="#995AB3"/>
</svg>
