<svg width="28" height="29" viewBox="0 0 28 29" fill="none" xmlns="http://www.w3.org/2000/svg">
<g clip-path="url(#clip0_142_7495)">
<path d="M28 14.5C28 22.2321 21.7321 28.5 14 28.5C6.26791 28.5 0 22.2321 0 14.5C0 6.76791 6.26791 0.5 14 0.5C21.7321 0.5 28 6.76791 28 14.5Z" fill="#60DAA8"/>
<path d="M12.9904 23.9605C14.1457 22.8657 14.658 21.3533 14.658 21.3533L12.796 19.7725C12.796 19.7725 10.5081 15.3772 10.5222 15.3883C5.41406 9.44806 9.27039 1.39426 9.31396 1.30347C3.88708 3.2312 0 8.41199 0 14.5C0 21.7057 5.44504 27.6402 12.4444 28.4146C11.5324 27.0333 11.7403 25.1455 12.9904 23.9605Z" fill="#00CE8E"/>
<path d="M13.1449 22.0252C12.7087 22.0252 12.2701 21.8857 11.9005 21.6005L5.30085 16.5097C4.40919 15.822 4.24385 14.5416 4.93171 13.6499C5.61937 12.7584 6.89982 12.5931 7.79148 13.2808L12.8975 17.2197L19.9424 9.42293C20.6973 8.58745 21.9865 8.52209 22.8222 9.27724C23.6577 10.032 23.7231 11.3214 22.9679 12.1569L14.6586 21.3531C14.2579 21.7966 13.7033 22.0252 13.1449 22.0252Z" fill="#FFFCDC"/>
</g>
<defs>
<clipPath id="clip0_142_7495">
<rect width="28" height="28" fill="white" transform="translate(0 0.5)"/>
</clipPath>
</defs>
</svg>
